<svg xmlns="http://www.w3.org/2000/svg" xmlns:xlink="http://www.w3.org/1999/xlink" width="280.567" height="65.667" viewBox="0 0 280.567 65.667">
  <defs>
    <clipPath id="clip-path">
      <rect id="Rectangle_426" data-name="Rectangle 426" width="280.567" height="65.667" fill="none"/>
    </clipPath>
  </defs>
  <g id="Group_2835" data-name="Group 2835" transform="translate(-128)">
    <g id="Group_2834" data-name="Group 2834" transform="translate(128)" clip-path="url(#clip-path)">
      <path id="Path_2874" data-name="Path 2874" d="M62.552,42.392a3.468,3.468,0,0,1-3.243-2.152l-.051-.148-2.779-10.26a.859.859,0,0,0-.787-.634l-12.183-.626a3.523,3.523,0,0,1-1.36-6.466L76.582.432h0A2.7,2.7,0,0,1,79.8.65a2.7,2.7,0,0,1,.781,3.133L65.819,40.193a3.467,3.467,0,0,1-3.239,2.2ZM61.475,39.4a1.2,1.2,0,0,0,2.192-.077L78.432,2.911a.421.421,0,0,0-.614-.514L43.385,24.071a1.2,1.2,0,0,0,.417,2.2l12.007.611a3.175,3.175,0,0,1,2.91,2.346Z" transform="translate(-17.561 0)" fill="#ee4d14"/>
      <path id="Path_2875" data-name="Path 2875" d="M60.688,22.493a1.183,1.183,0,0,0-1.177,1.3,1.23,1.23,0,0,0,1.244,1.061h7.821L61.619,46.741,25.837,54.627l-8.564-29.49h7.834a1.23,1.23,0,0,0,1.244-1.061,1.184,1.184,0,0,0-1.177-1.3H16.585L13.923,13.6H1.251A1.229,1.229,0,0,0,.006,14.666a1.183,1.183,0,0,0,1.177,1.3H12.146L23.7,55.767a1.832,1.832,0,0,0,2.153,1.278L62.31,49.012a2.043,2.043,0,0,0,1.507-1.376L71.237,24.3a1.386,1.386,0,0,0-1.321-1.806Z" transform="translate(0 -5.899)" fill="#002433"/>
      <path id="Path_2876" data-name="Path 2876" d="M50.826,105.2a7.016,7.016,0,1,1,7.016-7.016,7.024,7.024,0,0,1-7.016,7.016m0-11.667a4.65,4.65,0,1,0,4.65,4.65,4.655,4.655,0,0,0-4.65-4.65" transform="translate(-18.996 -39.529)" fill="#002433"/>
      <path id="Path_2877" data-name="Path 2877" d="M91.44,105.2a7.016,7.016,0,1,1,7.016-7.016A7.024,7.024,0,0,1,91.44,105.2m0-11.667a4.65,4.65,0,1,0,4.65,4.65,4.656,4.656,0,0,0-4.65-4.65" transform="translate(-36.607 -39.529)" fill="#002433"/>
      <path id="Path_2878" data-name="Path 2878" d="M147.777,36.8h-4.963V57.983H145.2V39.009h2.572c1.985,0,2.91.886,2.91,2.787v3.6c0,1.839-.915,2.695-2.88,2.695H146.2v2.3h1.673a5.18,5.18,0,0,0,3.889-1.374,5.019,5.019,0,0,0,1.319-3.619V41.8a4.983,4.983,0,0,0-1.337-3.621,5.322,5.322,0,0,0-3.964-1.373" transform="translate(-61.925 -15.958)" fill="#ee4d14"/>
      <path id="Path_2879" data-name="Path 2879" d="M176.215,44.6V41.8a4.983,4.983,0,0,0-1.337-3.621,5.323,5.323,0,0,0-3.964-1.373h-4.963V57.984h2.391v-8.4h2.572c.154,0,.286,0,.4-.008l3.006,8.4h2.619l-3.282-8.941a4.458,4.458,0,0,0,2.561-4.448m-7.873-5.586h2.572c1.985,0,2.91.886,2.91,2.787v2.8c0,1.859-.925,2.725-2.91,2.725h-2.572Z" transform="translate(-71.957 -15.958)" fill="#ee4d14"/>
      <path id="Path_2880" data-name="Path 2880" d="M195.67,36.26a5.307,5.307,0,0,0-3.981,1.4,5.1,5.1,0,0,0-1.35,3.682V52.97a5.1,5.1,0,0,0,1.35,3.68,6.322,6.322,0,0,0,7.949,0,5.134,5.134,0,0,0,1.333-3.679V41.346a5.134,5.134,0,0,0-1.333-3.68,5.252,5.252,0,0,0-3.968-1.406m0,19.559c-2.007,0-2.941-.915-2.941-2.88V41.376c0-1.965.935-2.88,2.941-2.88,1.985,0,2.91.915,2.91,2.88V52.939c0,1.965-.925,2.88-2.91,2.88" transform="translate(-82.532 -15.723)" fill="#ee4d14"/>
      <path id="Path_2881" data-name="Path 2881" d="M220.707,36.26a5.307,5.307,0,0,0-3.981,1.4,5.1,5.1,0,0,0-1.35,3.682V52.97a5.1,5.1,0,0,0,1.35,3.68,6.322,6.322,0,0,0,7.949,0,5.136,5.136,0,0,0,1.333-3.679v-1.7h-2.39v1.671c0,1.965-.925,2.88-2.91,2.88-2.007,0-2.941-.915-2.941-2.88V41.376c0-1.965.935-2.88,2.941-2.88,1.985,0,2.91.915,2.91,2.88v1.795h2.39V41.346a5.136,5.136,0,0,0-1.333-3.68,5.252,5.252,0,0,0-3.968-1.406" transform="translate(-93.388 -15.723)" fill="#ee4d14"/>
      <path id="Path_2882" data-name="Path 2882" d="M248.384,53.175c0,1.964-.925,2.88-2.91,2.88-2.007,0-2.941-.915-2.941-2.88V36.8h-2.391v16.4a5.1,5.1,0,0,0,1.35,3.68,6.343,6.343,0,0,0,7.962,0,5.1,5.1,0,0,0,1.351-3.681V36.8h-2.422Z" transform="translate(-104.127 -15.958)" fill="#ee4d14"/>
      <path id="Path_2883" data-name="Path 2883" d="M276.258,44.6V41.8a4.983,4.983,0,0,0-1.337-3.621,5.323,5.323,0,0,0-3.964-1.373h-4.963V57.984h2.391v-8.4h2.572c.154,0,.286,0,.4-.008l3.006,8.4h2.619L273.7,49.044a4.458,4.458,0,0,0,2.561-4.448m-7.873-5.586h2.572c1.985,0,2.91.886,2.91,2.787v2.8c0,1.859-.925,2.725-2.91,2.725h-2.572Z" transform="translate(-115.336 -15.958)" fill="#ee4d14"/>
      <path id="Path_2884" data-name="Path 2884" d="M290.924,57.984h9.28V55.777h-6.888V48.419h6.027V46.213h-6.027v-7.2H300.2V36.8h-9.28Z" transform="translate(-126.146 -15.958)" fill="#ee4d14"/>
      <path id="Path_2885" data-name="Path 2885" d="M326.973,45.725c-.467,1.415-.874,2.717-1.214,3.885L324.6,45.756,321.663,36.8h-2.856V57.983h2.3V45.425c0-1.256-.008-2.385-.026-3.378l1.095,3.474,2.288,6.928h2.646L330.5,41.921l-.039,16.063h2.3V36.8h-2.888Z" transform="translate(-138.236 -15.958)" fill="#002433"/>
      <path id="Path_2886" data-name="Path 2886" d="M352.363,36.8l-4.914,21.181h2.5l1.353-5.9h5.151l1.353,5.9h2.5L355.392,36.8Zm3.605,13.04h-4.181l.894-3.885c.5-2.168.892-4.023,1.184-5.542.219,1.09.588,2.809,1.209,5.542Z" transform="translate(-150.656 -15.958)" fill="#002433"/>
      <path id="Path_2887" data-name="Path 2887" d="M370.188,39.009h3.906V57.984h2.421V39.009h3.875V36.8h-10.2Z" transform="translate(-160.516 -15.958)" fill="#002433"/>
      <path id="Path_2888" data-name="Path 2888" d="M391.587,57.984h9.28V55.777h-6.888V48.419H400V46.213h-6.027v-7.2h6.888V36.8h-9.28Z" transform="translate(-169.794 -15.958)" fill="#002433"/>
      <path id="Path_2889" data-name="Path 2889" d="M412.138,69.273a1.342,1.342,0,0,0-1.487,1.487,1.488,1.488,0,0,0,2.975,0,1.342,1.342,0,0,0-1.487-1.487" transform="translate(-178.061 -30.037)" fill="#002433"/>
      <path id="Path_2890" data-name="Path 2890" d="M425.975,36.26a5.307,5.307,0,0,0-3.981,1.4,5.1,5.1,0,0,0-1.351,3.682V52.97a5.1,5.1,0,0,0,1.35,3.68,6.322,6.322,0,0,0,7.949,0,5.136,5.136,0,0,0,1.333-3.679v-1.7h-2.39v1.671c0,1.965-.925,2.88-2.91,2.88-2.007,0-2.941-.915-2.941-2.88V41.376c0-1.965.935-2.88,2.941-2.88,1.985,0,2.91.915,2.91,2.88v1.795h2.39V41.346a5.136,5.136,0,0,0-1.333-3.68,5.252,5.252,0,0,0-3.968-1.406" transform="translate(-182.393 -15.723)" fill="#002433"/>
      <path id="Path_2891" data-name="Path 2891" d="M450.469,36.26a5.307,5.307,0,0,0-3.981,1.4,5.1,5.1,0,0,0-1.351,3.682V52.97a5.1,5.1,0,0,0,1.35,3.68,6.322,6.322,0,0,0,7.949,0,5.137,5.137,0,0,0,1.333-3.679V41.346a5.137,5.137,0,0,0-1.333-3.68,5.252,5.252,0,0,0-3.968-1.406m0,19.559c-2.007,0-2.941-.915-2.941-2.88V41.376c0-1.965.935-2.88,2.941-2.88,1.985,0,2.91.915,2.91,2.88V52.939c0,1.965-.925,2.88-2.91,2.88" transform="translate(-193.014 -15.723)" fill="#002433"/>
      <path id="Path_2892" data-name="Path 2892" d="M481.785,36.8l-2.9,8.923c-.467,1.415-.874,2.717-1.214,3.885l-1.164-3.854L473.574,36.8h-2.856V57.983h2.3V45.425c0-1.253-.009-2.381-.027-3.376l1.095,3.472,2.288,6.928h2.646l3.393-10.528-.039,16.063h2.3V36.8Z" transform="translate(-204.106 -15.958)" fill="#002433"/>
    </g>
  </g>
</svg>
