<svg xmlns="http://www.w3.org/2000/svg" xmlns:xlink="http://www.w3.org/1999/xlink" width="76" height="76" viewBox="0 0 76 76">
  <defs>
    <filter id="Ellipse_109" x="0" y="0" width="76" height="76" filterUnits="userSpaceOnUse">
      <feOffset dy="3" input="SourceAlpha"/>
      <feGaussianBlur stdDeviation="3" result="blur"/>
      <feFlood flood-opacity="0.161"/>
      <feComposite operator="in" in2="blur"/>
      <feComposite in="SourceGraphic"/>
    </filter>
  </defs>
  <g id="agreemnt_buttion" data-name="agreemnt buttion" transform="translate(-5279 -2290)">
    <g transform="matrix(1, 0, 0, 1, 5279, 2290)" filter="url(#Ellipse_109)">
      <circle id="Ellipse_109-2" data-name="Ellipse 109" cx="29" cy="29" r="29" transform="translate(9 6)" fill="#bb69e9"/>
    </g>
    <g id="icon_agreement" transform="translate(5961.316 1300.53)">
      <path id="Path_2894" data-name="Path 2894" d="M-544.662,1162.917a1.05,1.05,0,0,1-1.105.608c-.965-.025-1.932,0-2.9-.013a.858.858,0,0,0-.612.223q-2.6,2.2-5.21,4.389a1.85,1.85,0,0,1-3.054-.841,2.074,2.074,0,0,1,.243-1.622c-.3.252-.6.508-.9.754a1.839,1.839,0,0,1-2.683-.321,1.854,1.854,0,0,1-.05-2.108c.043-.066.089-.13.146-.212a1.913,1.913,0,0,1-2.449-.488,1.906,1.906,0,0,1,.083-2.359c-.107.044-.173.07-.238.1a1.848,1.848,0,0,1-2.3-.7,1.82,1.82,0,0,1,.331-2.364c.873-.76,1.767-1.5,2.658-2.238a.5.5,0,0,1,.3-.093q2.529-.008,5.058,0a.558.558,0,0,1,.347.154c.64.625,1.261,1.268,1.9,1.892a3.362,3.362,0,0,0,3.546.885,3.336,3.336,0,0,0,2.379-2.683,3.488,3.488,0,0,0-.638-2.78h.314c1.258,0,2.516.016,3.773-.008a1.013,1.013,0,0,1,1.071.613Z" transform="translate(-84.654 -136.992)" fill="#fff"/>
      <path id="Path_2895" data-name="Path 2895" d="M-649.215,1121.642a2.706,2.706,0,0,1-.662-.011,1.548,1.548,0,0,1-.662-.327c-.587-.547-1.137-1.133-1.714-1.691a.6.6,0,0,0-.375-.154c-1.239-.011-2.479-.006-3.718-.007a.854.854,0,0,1-.971-.974q0-4.246,0-8.492a.836.836,0,0,1,.938-.945q3.062,0,6.124,0a.54.54,0,0,0,.429-.177,4.66,4.66,0,0,1,3.549-1.474c1.576.016,3.153.009,4.729,0a3.275,3.275,0,0,1,2.417.968c1.062,1.054,2.128,2.1,3.168,3.179a1.841,1.841,0,0,1-.829,3.109,1.852,1.852,0,0,1-1.852-.533c-.711-.708-1.424-1.414-2.124-2.133a1.164,1.164,0,0,0-.9-.37c-1.932.009-3.864,0-5.8.011a.7.7,0,0,0-.41.15c-.971.8-1.931,1.614-2.895,2.423a3.5,3.5,0,0,0,.927,5.978.347.347,0,0,1,.188.162C-649.5,1120.76-649.363,1121.191-649.215,1121.642Z" transform="translate(0 -94.624)" fill="#fff"/>
      <path id="Path_2896" data-name="Path 2896" d="M-558.412,1030.813a2.348,2.348,0,0,1,.554.3c.734.709,1.451,1.434,2.166,2.161a.814.814,0,0,1,.02,1.176.81.81,0,0,1-1.174-.015q-1.089-1.076-2.162-2.166a.792.792,0,0,1-.185-.906A.946.946,0,0,1-558.412,1030.813Z" transform="translate(-90.894 -23.64)" fill="#fff"/>
      <path id="Path_2897" data-name="Path 2897" d="M-421.5,1030.749a.96.96,0,0,1,.786.554.794.794,0,0,1-.182.907c-.413.425-.835.84-1.253,1.259-.3.3-.589.6-.889.889a.817.817,0,0,1-1.194.037.819.819,0,0,1,.036-1.2c.7-.712,1.407-1.427,2.127-2.123A2.653,2.653,0,0,1-421.5,1030.749Z" transform="translate(-215.831 -23.58)" fill="#fff"/>
      <path id="Path_2898" data-name="Path 2898" d="M-475.272,1007.5c0,.428,0,.857,0,1.285a.816.816,0,0,1-.816.871.814.814,0,0,1-.823-.864q-.006-1.312,0-2.625a.812.812,0,0,1,.829-.857.811.811,0,0,1,.809.849C-475.267,1006.606-475.272,1007.053-475.272,1007.5Z" transform="translate(-167.224 0)" fill="#fff"/>
    </g>
    <text id="Agreement" transform="translate(5294 2339.979)" fill="#fff" font-size="8" font-family="Montserrat-Regular, Montserrat"><tspan x="0" y="0">Agreement</tspan></text>
  </g>
</svg>
