<svg xmlns="http://www.w3.org/2000/svg" xmlns:xlink="http://www.w3.org/1999/xlink" width="76" height="76" viewBox="0 0 76 76">
  <defs>
    <filter id="Ellipse_109" x="0" y="0" width="76" height="76" filterUnits="userSpaceOnUse">
      <feOffset dy="3" input="SourceAlpha"/>
      <feGaussianBlur stdDeviation="3" result="blur"/>
      <feFlood flood-opacity="0.161"/>
      <feComposite operator="in" in2="blur"/>
      <feComposite in="SourceGraphic"/>
    </filter>
    <clipPath id="clip-path">
      <rect id="Rectangle_406" data-name="Rectangle 406" width="14.436" height="17.602" fill="none"/>
    </clipPath>
  </defs>
  <g id="Group_2831" data-name="Group 2831" transform="translate(-5279 -2290)">
    <g transform="matrix(1, 0, 0, 1, 5279, 2290)" filter="url(#Ellipse_109)">
      <circle id="Ellipse_109-2" data-name="Ellipse 109" cx="29" cy="29" r="29" transform="translate(9 6)" fill="#cf92f1"/>
    </g>
    <g id="Group_2820" data-name="Group 2820" transform="translate(5307.876 2310.146)">
      <g id="Group_2803" data-name="Group 2803" transform="translate(2.694 0)">
        <g id="Component_34_19" data-name="Component 34 – 19">
          <g id="Group_382" data-name="Group 382" clip-path="url(#clip-path)">
            <path id="Path_513" data-name="Path 513" d="M8.162.015c0,.7,0,1.358,0,2.015A1.544,1.544,0,0,0,9.836,3.642c.679,0,1.357,0,2.065,0V10.4A4.09,4.09,0,0,0,7.707,11.97a3.816,3.816,0,0,0-.2,4.4c-.131.01-.239.025-.347.025q-3.021,0-6.042,0C.347,16.394,0,16.057,0,15.3Q0,8.189,0,1.074C0,.345.354,0,1.1,0Q4.456,0,7.81,0c.1,0,.2.008.352.014M5.922,6.072q1.8,0,3.606,0c.246,0,.516,0,.5-.32-.01-.292-.266-.29-.5-.29q-3.567,0-7.133,0c-.246,0-.516,0-.5.32.01.292.266.29.5.29q1.764,0,3.527,0m.044,1.821q-1.783,0-3.567,0c-.246,0-.515,0-.5.321.011.292.268.288.5.288q3.567,0,7.133,0c.246,0,.515,0,.5-.322-.011-.292-.268-.289-.5-.288q-1.783,0-3.567,0m-1.9,3.037c.587,0,1.175,0,1.762,0,.233,0,.463-.053.422-.31a.519.519,0,0,0-.4-.286c-1.187-.023-2.375-.012-3.563-.014-.225,0-.432.081-.383.308a.529.529,0,0,0,.4.287c.585.033,1.174.014,1.761.014" transform="translate(0 0.001)" fill="#fff"/>
            <path id="Path_514" data-name="Path 514" d="M99.483,144.016a3.337,3.337,0,1,1-3.449,3.327,3.385,3.385,0,0,1,3.449-3.327m-.312,3.035a5.359,5.359,0,0,0-.874.013c-.139.025-.252.188-.377.289.122.1.232.269.368.291a5.579,5.579,0,0,0,.883.014,4.888,4.888,0,0,0,.013.829.514.514,0,0,0,.287.363c.236.046.33-.144.328-.364,0-.272,0-.543,0-.827.315,0,.563-.007.811,0s.465-.044.419-.3c-.021-.118-.253-.255-.408-.283a4.769,4.769,0,0,0-.822-.013,4.774,4.774,0,0,0-.014-.851c-.026-.134-.2-.24-.307-.359-.1.12-.268.23-.292.364a4.88,4.88,0,0,0-.014.838" transform="translate(-88.496 -133.084)" fill="#fff"/>
            <path id="Path_515" data-name="Path 515" d="M112.036,7.092,114.6,9.575c-.591,0-1.2.026-1.8-.009a.829.829,0,0,1-.761-.753c-.031-.573-.008-1.149-.008-1.721" transform="translate(-103.234 -6.554)" fill="#fff"/>
          </g>
        </g>
      </g>
      <text id="RFQ" transform="translate(0.123 27.707)" fill="#fff" font-size="8" font-family="Montserrat-Medium, Montserrat" font-weight="500" letter-spacing="0.02em"><tspan x="0" y="0">RFQ</tspan></text>
    </g>
  </g>
</svg>
