<svg xmlns="http://www.w3.org/2000/svg" xmlns:xlink="http://www.w3.org/1999/xlink" width="76" height="76" viewBox="0 0 76 76">
  <defs>
    <filter id="Ellipse_111" x="0" y="0" width="76" height="76" filterUnits="userSpaceOnUse">
      <feOffset dy="3" input="SourceAlpha"/>
      <feGaussianBlur stdDeviation="3" result="blur"/>
      <feFlood flood-opacity="0.161"/>
      <feComposite operator="in" in2="blur"/>
      <feComposite in="SourceGraphic"/>
    </filter>
  </defs>
  <g id="Group_2828" data-name="Group 2828" transform="translate(-5279 -2493)">
    <g transform="matrix(1, 0, 0, 1, 5279, 2493)" filter="url(#Ellipse_111)">
      <circle id="Ellipse_111-2" data-name="Ellipse 111" cx="29" cy="29" r="29" transform="translate(9 6)" fill="#f36f65"/>
    </g>
    <g id="Group_2825" data-name="Group 2825" transform="translate(5308.189 2513.769)">
      <text id="PDF" transform="translate(-0.189 26.463)" fill="#fff" font-size="8" font-family="Montserrat-Medium, Montserrat" font-weight="500" letter-spacing="0.02em"><tspan x="0" y="0">PDF</tspan></text>
      <g id="Group_2806" data-name="Group 2806" transform="translate(3.502 0)">
        <path id="file-pdf-o" d="M11.836,3.064a1.873,1.873,0,0,1,.387.613,1.87,1.87,0,0,1,.161.71v9.288a.771.771,0,0,1-.774.774H.774a.746.746,0,0,1-.548-.226A.749.749,0,0,1,0,13.674V.774A.746.746,0,0,1,.226.226.749.749,0,0,1,.774,0H8a1.86,1.86,0,0,1,.71.161,1.882,1.882,0,0,1,.613.387ZM8.256,1.1V4.128h3.032A.881.881,0,0,0,11.11,3.8L8.587,1.274A.881.881,0,0,0,8.256,1.1Zm3.1,12.319V5.16H8a.771.771,0,0,1-.774-.774V1.032H1.032V13.416h10.32ZM7.208,8.635a6.154,6.154,0,0,0,.677.452,7.977,7.977,0,0,1,.943-.057q1.185,0,1.427.395a.39.39,0,0,1,.016.419.023.023,0,0,1-.008.016l-.016.016v.008q-.049.306-.572.306a3.324,3.324,0,0,1-.927-.161A5.886,5.886,0,0,1,7.7,9.6a14.519,14.519,0,0,0-3.161.669q-1.234,2.112-1.951,2.112a.47.47,0,0,1-.226-.057l-.193-.1-.049-.04a.333.333,0,0,1-.049-.29,1.75,1.75,0,0,1,.452-.738,3.9,3.9,0,0,1,1.064-.778.118.118,0,0,1,.185.049.046.046,0,0,1,.016.032q.419-.685.863-1.588A12.3,12.3,0,0,0,5.49,6.763a6.526,6.526,0,0,1-.246-1.286A3.1,3.1,0,0,1,5.3,4.45q.089-.323.339-.323h.177a.34.34,0,0,1,.282.121.643.643,0,0,1,.073.548.175.175,0,0,1-.032.065.21.21,0,0,1,.008.065v.242a10.555,10.555,0,0,1-.113,1.548A4.078,4.078,0,0,0,7.208,8.635ZM2.564,11.949a3.557,3.557,0,0,0,1.1-1.274,4.594,4.594,0,0,0-.706.677,2.678,2.678,0,0,0-.4.6ZM5.773,4.531A2.4,2.4,0,0,0,5.757,5.6q.008-.057.057-.355,0-.024.057-.347A.185.185,0,0,1,5.9,4.829a.023.023,0,0,1-.008-.016.062.062,0,0,1-.008-.024.464.464,0,0,0-.1-.29.023.023,0,0,1-.008.016v.016Zm-1,5.329a11.814,11.814,0,0,1,2.29-.653,1.218,1.218,0,0,1-.1-.077,1.449,1.449,0,0,1-.129-.109A4.268,4.268,0,0,1,5.805,7.6a10.756,10.756,0,0,1-.669,1.588q-.242.452-.363.669Zm5.209-.129a1.93,1.93,0,0,0-1.129-.193,3.048,3.048,0,0,0,1,.226A.789.789,0,0,0,10,9.756q0-.008-.016-.024Z" transform="translate(0 0)" fill="#fff"/>
      </g>
    </g>
  </g>
</svg>
