<svg xmlns="http://www.w3.org/2000/svg" width="18" height="20" viewBox="0 0 18 20">
  <defs>
    <style>
      .cls-1 {
      fill: #484848;
      }
    </style>
  </defs>
  <g id="bx:bx-bell" transform="translate(-3 -2)">
    <path id="Union_1" data-name="Union 1" class="cls-1" d="M-5344.729-127.549a2.978,2.978,0,0,1-1.089-1.451h5.636a2.994,2.994,0,0,1-1.089,1.451A2.994,2.994,0,0,1-5343-127,3,3,0,0,1-5344.729-127.549ZM-5351-130a1,1,0,0,1-.708-.293A1,1,0,0,1-5352-131v-2a.988.988,0,0,1,.076-.383.993.993,0,0,1,.216-.324l1.707-1.707V-139a7.009,7.009,0,0,1,5.146-6.743A1.99,1.99,0,0,1-5343-147a1.99,1.99,0,0,1,1.855,1.257A7.008,7.008,0,0,1-5336-139v3.586l1.708,1.707a1.019,1.019,0,0,1,.217.324A1,1,0,0,1-5334-133v2a1,1,0,0,1-.292.707A1,1,0,0,1-5335-130Z" transform="translate(5355 149)"/>
  </g>
</svg>
