<svg id="Icon_ionic-ios-chatboxes" data-name="Icon ionic-ios-chatboxes" xmlns="http://www.w3.org/2000/svg" width="33.369" height="33.374" viewBox="0 0 33.369 33.374">
  <path id="Path_553" data-name="Path 553" d="M32.522,11.981H14.743a3.061,3.061,0,0,0-3.057,3.057v12.38a3.054,3.054,0,0,0,3.057,3.049H24.916a.877.877,0,0,1,.61.257l5.055,4.661c.281.273.746.16.746-.233v-4.06c0-.481.3-.634.786-.634h.08a3.34,3.34,0,0,0,3.378-3.049V15.038A3.044,3.044,0,0,0,32.522,11.981Z" transform="translate(-2.202 -2.161)" fill="#f70"/>
  <path id="Path_554" data-name="Path 554" d="M13.516,11.23H27.75V5.991a2.616,2.616,0,0,0-2.616-2.616H5.991A2.616,2.616,0,0,0,3.375,5.991V19.245a2.616,2.616,0,0,0,2.616,2.616h4.9V13.845A2.628,2.628,0,0,1,13.516,11.23Z" transform="translate(-3.375 -3.375)" fill="#f70"/>
</svg>
