<svg xmlns="http://www.w3.org/2000/svg" xmlns:xlink="http://www.w3.org/1999/xlink" width="76" height="76" viewBox="0 0 76 76">
  <defs>
    <filter id="Ellipse_109" x="0" y="0" width="76" height="76" filterUnits="userSpaceOnUse">
      <feOffset dy="3" input="SourceAlpha"/>
      <feGaussianBlur stdDeviation="3" result="blur"/>
      <feFlood flood-opacity="0.161"/>
      <feComposite operator="in" in2="blur"/>
      <feComposite in="SourceGraphic"/>
    </filter>
  </defs>
  <g id="icon_Po" transform="translate(-5279 -2290)">
    <g transform="matrix(1, 0, 0, 1, 5279, 2290)" filter="url(#Ellipse_109)">
      <circle id="Ellipse_109-2" data-name="Ellipse 109" cx="29" cy="29" r="29" transform="translate(9 6)" fill="#e969a5"/>
    </g>
    <text id="PO" transform="translate(5311 2339.979)" fill="#fff" font-size="8" font-family="Montserrat-Regular, Montserrat"><tspan x="0" y="0">PO</tspan></text>
    <g id="Group_2979" data-name="Group 2979" transform="translate(5716.611 2248.137)">
      <g id="Group_2979-2" data-name="Group 2979" transform="translate(-409.611 55.885)">
        <path id="Path_3060" data-name="Path 3060" d="M-402.2,56.481a2.152,2.152,0,0,1,2.634-.266,2.141,2.141,0,0,1,.963,1.734c.439,0,.878-.018,1.316.007a.716.716,0,0,1,.547.5c1.181,0,2.362-.009,3.542,0a1.455,1.455,0,0,1,1.367,1.386c.014,3.238-.008,6.477.011,9.715a2.859,2.859,0,0,0-.689-.042q0-4.794,0-9.588a.782.782,0,0,0-.768-.793c-.609-.012-1.218.007-1.827-.009a1.033,1.033,0,0,1,.062.507.682.682,0,0,1-.714.538h-9.922a.685.685,0,0,1-.7-.48.939.939,0,0,1,.049-.565c-.611.017-1.223,0-1.833.009a.782.782,0,0,0-.762.792q0,10.271,0,20.541a.786.786,0,0,0,.769.851h12.424c-.037.228-.086.455-.119.684h-12.392a1.471,1.471,0,0,1-1.36-1.446q-.005-10.316,0-20.631a1.462,1.462,0,0,1,1.367-1.47c1.181-.014,2.364-.005,3.545,0a.716.716,0,0,1,.543-.5c.439-.027.88,0,1.321-.009A2.153,2.153,0,0,1-402.2,56.481Zm1.244.036a.556.556,0,0,0-.11.93.557.557,0,0,0,.893-.34A.554.554,0,0,0-400.959,56.517Z" transform="translate(409.611 -55.885)" fill="#fff"/>
      </g>
      <path id="Path_3061" data-name="Path 3061" d="M-272.408,120.775c.26-.232.636-.613,1-.361a15.7,15.7,0,0,0-2.349,3.2.751.751,0,0,1-.74.477,1.048,1.048,0,0,1-.277-.323,6.354,6.354,0,0,0-1.043-1.439c-.124-.09-.027-.229.086-.263a1.544,1.544,0,0,1,.725-.157,3.3,3.3,0,0,1,.721.974A22.372,22.372,0,0,1-272.408,120.775Z" transform="translate(-122.292 -58.933)" fill="#fff"/>
      <path id="Path_3062" data-name="Path 3062" d="M-385.94,144.742a1.013,1.013,0,0,1,.4-.05c2.308.006,4.617,0,6.926,0a.327.327,0,0,1,.372.293.334.334,0,0,1-.377.386q-3.545,0-7.092,0A.348.348,0,0,1-385.94,144.742Z" transform="translate(-21.511 -81.21)" fill="#fff"/>
      <path id="Path_3063" data-name="Path 3063" d="M-272.229,172.689c.208-.185.568-.432.813-.178a14.188,14.188,0,0,0-1.768,2.215c-.273.391-.464.833-.749,1.216a.466.466,0,0,1-.787,0,6.777,6.777,0,0,0-1.109-1.54c-.121-.081,0-.229.095-.258a1.156,1.156,0,0,1,.781-.127,4.507,4.507,0,0,1,.662.946A19.324,19.324,0,0,1-272.229,172.689Z" transform="translate(-122.289 -106.55)" fill="#fff"/>
      <path id="Path_3064" data-name="Path 3064" d="M-385.926,196.867a1.108,1.108,0,0,1,.4-.045c2.336.01,4.673-.01,7.009.01.393,0,.375.666-.014.666-2.391.014-4.784,0-7.175.005A.35.35,0,0,1-385.926,196.867Z" transform="translate(-21.521 -128.881)" fill="#fff"/>
      <g id="Group_2980" data-name="Group 2980" transform="translate(-399.348 69.931)">
        <path id="Path_3065" data-name="Path 3065" d="M-283.662,220.088c.455.009.911-.024,1.365,0l.071.1c.11.635.21,1.272.326,1.907a8.642,8.642,0,0,1,1.04.359c.468-.449.953-.88,1.436-1.311.089-.1.2.022.27.074.317.265.647.514.958.784.1.095-.018.225-.056.321q-.452.76-.9,1.524a6.865,6.865,0,0,1,.56.945c.672-.01,1.344-.1,2.016-.074a.951.951,0,0,1,.133.426c.056.342.143.679.186,1.023.014.149-.169.162-.267.209-.552.19-1.1.4-1.649.581a4.955,4.955,0,0,1-.179,1.072c.525.443,1.124.808,1.61,1.293a8.566,8.566,0,0,1-.763,1.336c-.648-.166-1.258-.469-1.9-.668-.281.231-.548.483-.835.709q.207.987.431,1.971a13.113,13.113,0,0,1-1.457.6c-.406-.568-.691-1.213-1.069-1.8a3.937,3.937,0,0,1-1.066.031c-.281.54-.57,1.076-.847,1.619-.045.094-.139.234-.263.157-.416-.131-.83-.274-1.238-.428-.111-.032-.1-.168-.08-.256.107-.6.222-1.207.329-1.811a6.449,6.449,0,0,1-.844-.689c-.619.248-1.228.524-1.855.75-.176-.058-.224-.277-.327-.414a5.819,5.819,0,0,1-.509-.925c.488-.463,1.03-.868,1.545-1.3a7.612,7.612,0,0,1-.2-1.082c-.568-.173-1.133-.36-1.7-.536-.089-.041-.227-.052-.253-.166.053-.4.135-.8.186-1.2.033-.1.011-.283.16-.282.648-.015,1.3,0,1.948.013a8.409,8.409,0,0,1,.536-.974c-.354-.549-.713-1.1-1.045-1.66,0-.246.3-.34.441-.506.253-.174.447-.5.752-.556.529.4,1.015.859,1.529,1.28a7.355,7.355,0,0,1,1.028-.4c.052-.571.155-1.137.216-1.708C-283.869,220.287-283.863,220.048-283.662,220.088Zm.106,3.358a3.436,3.436,0,0,0-2.75,3.222,3.4,3.4,0,0,0,1.333,2.77,3.357,3.357,0,0,0,2.939.565,3.441,3.441,0,0,0,2.472-3.021,3.4,3.4,0,0,0-1.577-3.077A3.393,3.393,0,0,0-283.556,223.445Z" transform="translate(289.64 -220.079)" fill="#fff"/>
      </g>
      <path id="Path_3066" data-name="Path 3066" d="M-385.932,247.989a1.074,1.074,0,0,1,.4-.045c2.309.006,4.619,0,6.928,0a.328.328,0,0,1,.354.435c-.039.194-.264.261-.439.246-2.344,0-4.688,0-7.032,0A.351.351,0,0,1-385.932,247.989Z" transform="translate(-21.516 -175.628)" fill="#fff"/>
      <path id="Path_3067" data-name="Path 3067" d="M-385.926,303.082a1,1,0,0,1,.388-.04c2.342.008,4.684-.006,7.025.007.292,0,.387.45.153.6a.471.471,0,0,1-.325.078c-2.342-.005-4.685,0-7.029,0A.35.35,0,0,1-385.926,303.082Z" transform="translate(-21.518 -226.014)" fill="#fff"/>
    </g>
  </g>
</svg>
