<svg id="menu_icon" data-name="menu icon" xmlns="http://www.w3.org/2000/svg" xmlns:xlink="http://www.w3.org/1999/xlink" width="81.416" height="74.635" viewBox="0 0 81.416 74.635">
  <defs>
    <style>
      .cls-1 {
        fill: #fcb450;
      }

      .cls-2 {
        clip-path: url(#clip-path);
      }
    </style>
    <clipPath id="clip-path">
      <rect id="Rectangle_416" data-name="Rectangle 416" class="cls-1" width="81.416" height="74.635"/>
    </clipPath>
  </defs>
  <g id="Group_398" data-name="Group 398" transform="translate(-28 6.5)">
    <g id="Group_400" data-name="Group 400" transform="translate(28 -6.5)">
      <g id="Group_399" data-name="Group 399" class="cls-2">
        <path id="Path_542" data-name="Path 542" class="cls-1" d="M0,27.137Q16.953,13.561,33.917,0,50.892,13.556,67.844,27.137q-3.39.007-6.778,0c-.011,2.263,0,4.526,0,6.789q-16.965-.007-33.927,0c-.008,11.31.008,22.622-.01,33.932-6.781-.014-13.563,0-20.346-.01q-.01-20.352,0-40.706c-2.26,0-4.52,0-6.779,0M13.563,50.886c2.26,0,4.52,0,6.779,0,.013-3.394,0-6.787.006-10.181-2.257-.006-4.513.01-6.77-.008-.037,3.394,0,6.79-.016,10.184"/>
        <path id="Path_543" data-name="Path 543" class="cls-1" d="M213.286,283.117q.007-13.568.006-27.135,13.566,0,27.133,0,0,13.571,0,27.14c-2.26,0-4.52,0-6.778,0a6.84,6.84,0,0,1-6.348,6.784h-1a7.117,7.117,0,0,1-3.99-1.762,6.874,6.874,0,0,1-2.245-5.025c-2.26,0-4.518.006-6.776,0m12.743-3.284a3.391,3.391,0,1,0,2.8.531,3.4,3.4,0,0,0-2.8-.531" transform="translate(-179.367 -215.272)"/>
        <path id="Path_544" data-name="Path 544" class="cls-1" d="M405.289,298.65c3.4,0,6.789-.008,10.184,0,2.255,3.4,4.526,6.779,6.778,10.176v10.636a6.961,6.961,0,0,1-2.578,4.857,7.121,7.121,0,0,1-3.721,1.466h-.639a6.817,6.817,0,0,1-6.638-6.784c-1.128-.006-2.255,0-3.383,0q-.014-10.176,0-20.354m3.394,3.394q0,3.39,0,6.781,4.745,0,9.489,0-2.261-3.39-4.521-6.781-2.486-.007-4.968,0m6.006,13.659a3.391,3.391,0,1,0,2.964.712,3.4,3.4,0,0,0-2.964-.712" transform="translate(-340.835 -251.154)"/>
      </g>
    </g>
  </g>
</svg>
