<svg xmlns="http://www.w3.org/2000/svg" xmlns:xlink="http://www.w3.org/1999/xlink" width="55.984" height="70.584" viewBox="0 0 55.984 70.584">
  <defs>
    <clipPath id="clip-path">
      <rect id="Rectangle_419" data-name="Rectangle 419" width="55.984" height="70.584" fill="#458ffe"/>
    </clipPath>
  </defs>
  <g id="Group_2782" data-name="Group 2782" clip-path="url(#clip-path)">
    <path id="Path_2804" data-name="Path 2804" d="M31.655.061c0,2.814-.013,5.447,0,8.081.024,3.936,2.54,6.443,6.488,6.467,2.632.016,5.264,0,8.007,0v27.08c-6.628-1.068-12.275.781-16.262,6.312-4,5.556-3.97,11.5-.762,17.639-.507.039-.926.1-1.344.1q-11.716.008-23.432,0C1.346,65.741,0,64.391,0,61.368Q0,32.838,0,4.309C0,1.386,1.371.007,4.27,0Q17.28-.008,30.289,0c.4,0,.791.032,1.366.058M22.967,24.352q6.992,0,13.984,0c.954,0,2,.007,1.958-1.284-.038-1.172-1.033-1.162-1.932-1.161q-13.832.009-27.664,0c-.953,0-2-.011-1.957,1.283.038,1.173,1.033,1.163,1.931,1.162q6.84-.012,13.68,0m.172,7.3q-6.916,0-13.832,0c-.955,0-2,0-1.951,1.289C7.4,34.113,8.4,34.1,9.293,34.1q13.832-.008,27.664,0c.956,0,2,0,1.952-1.29-.043-1.172-1.04-1.157-1.937-1.155q-6.916.012-13.832,0M15.781,43.833c2.278,0,4.555-.01,6.833.005.9.006,1.8-.212,1.638-1.242A2.019,2.019,0,0,0,22.7,41.448c-4.6-.092-9.211-.048-13.817-.055-.871,0-1.676.325-1.486,1.234a2.058,2.058,0,0,0,1.551,1.151c2.27.131,4.552.054,6.83.055" transform="translate(0 0)" fill="#458ffe"/>
    <path id="Path_2805" data-name="Path 2805" d="M109.409,144.016a13.373,13.373,0,1,1-13.375,13.341,13.34,13.34,0,0,1,13.375-13.341M108.2,156.187a20.1,20.1,0,0,0-3.389.054c-.54.1-.979.753-1.464,1.157.472.408.9,1.078,1.427,1.169a20.926,20.926,0,0,0,3.426.055,20.263,20.263,0,0,0,.051,3.324,2.051,2.051,0,0,0,1.112,1.455c.916.185,1.28-.577,1.274-1.459-.007-1.089,0-2.178,0-3.318,1.22,0,2.183-.028,3.144.008.915.034,1.8-.175,1.626-1.221-.08-.471-.98-1.024-1.584-1.137a17.889,17.889,0,0,0-3.188-.051,19.791,19.791,0,0,0-.056-3.414c-.1-.536-.776-.964-1.191-1.441-.4.483-1.038.922-1.134,1.458a20.233,20.233,0,0,0-.053,3.361" transform="translate(-66.802 -100.178)" fill="#458ffe"/>
    <path id="Path_2806" data-name="Path 2806" d="M112.06,7.092l9.958,9.957c-2.291,0-4.641.1-6.976-.037a3.27,3.27,0,0,1-2.951-3.021c-.121-2.3-.031-4.609-.031-6.9" transform="translate(-77.927 -4.933)" fill="#458ffe"/>
  </g>
</svg>
