<svg xmlns="http://www.w3.org/2000/svg" xmlns:xlink="http://www.w3.org/1999/xlink" width="30.96" height="36.787" viewBox="0 0 30.96 36.787">
  <defs>
    <clipPath id="clip-path">
      <rect id="Rectangle_407" data-name="Rectangle 407" class="cls-1" width="30.96" height="36.787" transform="translate(0 0)"/>
    </clipPath>
  </defs>
  <g id="Group_384" data-name="Group 384" class="cls-2" transform="translate(0 0)">
    <path id="Path_516" data-name="Path 516" class="cls-1" d="M202.834.1a5.739,5.739,0,0,1,1.457-.1c1.56,0,3.12,0,4.68,0,.257.008.514,0,.771,0a2.141,2.141,0,0,1,1.481.537l.036.035a3.082,3.082,0,0,1,.231.25c.046.058.086.121.129.182l.017.04a3.308,3.308,0,0,1,.213.576,5.374,5.374,0,0,1,.064,1.017c.012.211,0,.421.014.632.8,0,1.6,0,2.4,0q.005,2.815,0,5.629-7.728,0-15.455,0c0-.124,0-.248,0-.372q0-.387,0-.775t0-.773V6.2q0-.386,0-.773V4.654q0-.387,0-.774c0-.211,0-.422,0-.633.825,0,1.65,0,2.474,0,0-.48-.007-.96.008-1.441l.027,0c0-.066.007-.132.011-.2l.021,0a1.932,1.932,0,0,1,.4-.82,1.67,1.67,0,0,1,.2-.212A2.2,2.2,0,0,1,202.834.1m3.329,2.15.038,0a1.406,1.406,0,0,0-.2.03l-.14.051a2.416,2.416,0,0,0-.782.471c-.09.087-.178.177-.261.271l.041.011-.045,0c-.036.062-.081.117-.123.175a2.227,2.227,0,0,0-.254.571l-.021-.012a2.673,2.673,0,0,0-.068,1.038,3.636,3.636,0,0,0,.159.595l.047,0-.038.01c.055.092.1.192.158.281a2.294,2.294,0,0,0,.877.829l.124.053a1.475,1.475,0,0,1,.164.086l.033-.045c0,.014,0,.041,0,.055a3.037,3.037,0,0,1,.335.084l.032,0a2.468,2.468,0,0,0,.9-.005,1.472,1.472,0,0,1,.159-.04,1.306,1.306,0,0,1,.182-.038l-.024-.034.065.016a1.077,1.077,0,0,1,.156-.077c.069-.024.131-.065.2-.094A2.122,2.122,0,0,0,208.492,6a2.071,2.071,0,0,0,.173-.26l.04-.076a.944.944,0,0,0,.09-.221l.021,0a3.088,3.088,0,0,0,.148-.792,2.508,2.508,0,0,0-.085-.775,2.749,2.749,0,0,0-.133-.355l-.04-.079-.039-.076c-.06-.105-.134-.2-.2-.3l-.038.009.022-.044c-.094-.049-.137-.157-.234-.2,0-.009,0-.028,0-.037a3.064,3.064,0,0,0-.83-.485l-.031,0a2.082,2.082,0,0,0-1.194-.063" transform="translate(-191.16 -0.001)"/>
    <path id="Path_517" data-name="Path 517" class="cls-1" d="M.277,131.176a1.435,1.435,0,0,1,1.134-.563c1.234,0,2.468,0,3.7,0,.005,2.077-.005,4.154.005,6.231,4.825.009,9.649,0,14.473,0,2.06,0,4.12,0,6.18,0,.014-2.079,0-4.159.007-6.239,1.259.007,2.518,0,3.776,0a1.486,1.486,0,0,1,.733.2.889.889,0,0,1,.309.281l.037.02a1.415,1.415,0,0,1,.323.782q0,14.368,0,28.737a2.756,2.756,0,0,1-.055.707,1.53,1.53,0,0,1-.377.609,1.86,1.86,0,0,1-.345.238,1.547,1.547,0,0,1-.466.14c-4.5.011-9,0-13.5,0H1.41a1.419,1.419,0,0,1-.676-.171,1.5,1.5,0,0,1-.266-.184A1.435,1.435,0,0,1,0,160.991c.009-4.15,0-8.3,0-12.452Q0,141.27.005,134c0-.675.007-1.349-.005-2.024,0-.025,0-.074,0-.1.007-.047.014-.094.023-.141a1.528,1.528,0,0,1,.252-.561M24.428,140.5l-.112.045a1.234,1.234,0,0,0-.243.27c-.252.3-.5.615-.754.915-.016.029-.029.059-.042.089l-.06,0,.005.086-.027-.029c-.176.249-.38.478-.575.712l.036.008-.04,0a1.424,1.424,0,0,1-.176.213l0,.019a1.389,1.389,0,0,0-.148.168c-.057.071-.117.139-.173.212s-.1.12-.148.177v.017c-.106.11-.193.236-.294.35-.11.135-.226.266-.328.407h-.017l-.047.078c-.138.154-.259.323-.4.475l0,.018c-.072.066-.125.15-.2.216,0,.012,0,.035,0,.047-.049.012-.074.058-.1.094-.35.429-.7.863-1.055,1.285l-.005.017-.053.081-.016,0a1.652,1.652,0,0,1-.129.147c0,.009,0,.026,0,.035a5.716,5.716,0,0,0-.48.57l-.008,0c-.1.124-.2.249-.3.368-.064.1-.153.185-.224.283a1.884,1.884,0,0,0-.118.153l-.011,0c-.129.184-.3.341-.417.53-.071.063-.121.146-.2.205l.026.038-.034-.01c-.394.485-.787.97-1.186,1.45a.7.7,0,0,0-.1.152l-.049,0,0,.062-.011-.032c-.177.246-.4.461-.56.716l-.03,0-.051.087c-.04.047-.081.093-.126.137l0,.023c-.166.158-.289.355-.447.522l.04.01-.041,0c-.046.063-.1.124-.144.186s-.119.148-.185.216l0,.018-.05.066a3.8,3.8,0,0,0-.257.306c-.141.185-.307.353-.435.546a1.188,1.188,0,0,0-.2.23l-.036.026-.059-.01a5.478,5.478,0,0,0-.485-.419c-.15-.124-.3-.247-.449-.374-.105-.087-.214-.17-.309-.267l-.012.044,0-.046c-.372-.292-.73-.6-1.1-.9-.147-.131-.311-.242-.447-.383l-.008.043.007-.064-.06,0a1.766,1.766,0,0,0-.3-.268c-.138-.107-.262-.234-.41-.328l0-.01c-.072-.066-.148-.127-.226-.185-.182-.158-.374-.3-.555-.463L9.3,149.9l.006-.045a2.231,2.231,0,0,1-.342-.288l-.035,0a4.232,4.232,0,0,0-.37-.321c-.185-.165-.385-.312-.568-.478l-.088-.059a.548.548,0,0,1-.108-.116l-.042.022.01-.038c-.285-.214-.546-.459-.83-.675a.44.44,0,0,0-.618.124,1.642,1.642,0,0,1-.165.2l0,.043,0-.037c-.151.192-.317.372-.46.57H5.676l-.048.079c-.083.092-.155.193-.242.281l0,.018a2.72,2.72,0,0,0-.332.417H5.037a1,1,0,0,0-.259.415.5.5,0,0,0,.117.377l.043-.005-.035.005c.157.136.326.257.474.4l.013-.042,0,.045a.827.827,0,0,1,.161.131l.021,0a1.191,1.191,0,0,0,.2.164l0,.017.056.051.028,0a2.684,2.684,0,0,0,.311.27c.37.3.735.606,1.106.9.14.124.3.229.428.362l.007-.041-.006.063h.057a8.01,8.01,0,0,0,.716.594l0,.015a2.436,2.436,0,0,1,.223.181,5.808,5.808,0,0,1,.513.427l.028-.03-.014.034c.152.122.307.24.447.374l.028-.018c.083.138.25.2.35.326l.035,0,.034.057c.171.122.327.262.491.393.06.047.119.095.177.144.525.435,1.054.863,1.582,1.294a.546.546,0,0,1,.091.086l.028,0a.536.536,0,0,0,.112.11c.182.138.347.3.538.425l0,.025a.888.888,0,0,1,.233.181h.017c.151.136.309.266.472.39.1.061.266.118.347.006h.014c0-.027,0-.08,0-.107.07-.084.141-.168.206-.256h.009c.1-.127.2-.252.306-.375.061-.093.14-.173.208-.26l.1-.132.012,0c.149-.2.314-.38.464-.575a.994.994,0,0,0,.152-.2,6.411,6.411,0,0,0,.42-.5c.291-.368.6-.72.884-1.1a.435.435,0,0,0,.074-.062l-.006-.047.009.033c.176-.238.385-.453.552-.7.042-.019.063-.061.09-.1a.64.64,0,0,1,.122-.136l0-.025c.155-.156.284-.336.424-.5.055-.073.119-.138.172-.213a2.168,2.168,0,0,1,.146-.169v-.032l.041,0-.007-.058.013.035c.078-.114.178-.212.249-.33h.025c.221-.31.478-.6.717-.892.173-.22.354-.433.527-.653h.007l.043-.043-.005-.021c.171-.18.316-.382.478-.57.035-.046.068-.093.1-.14.087-.041.119-.159.2-.221.067-.1.15-.183.222-.276a2.03,2.03,0,0,1,.2-.232l-.031-.029.036.015c.114-.15.235-.295.358-.437l0-.01c.108-.112.19-.247.3-.354l-.045-.007.043.005c.137-.206.336-.376.452-.592l.006.028c.05-.071.1-.138.157-.206l.008,0c.426-.528.858-1.052,1.285-1.579.026-.033.053-.066.081-.1.177-.224.373-.433.532-.67l.033,0a1.158,1.158,0,0,1,.214-.281l0-.016a3.131,3.131,0,0,0,.378-.476l.028,0c.109-.157.236-.3.359-.449v-.005c.091-.1.171-.214.264-.316l-.039-.006.042,0c.229-.307.488-.59.719-.9.057-.1.14-.213.092-.329a.605.605,0,0,0-.276-.272l0-.013-.142-.123-.037.016.026-.028a.967.967,0,0,1-.18-.144h-.02a2.412,2.412,0,0,0-.22-.187,1.044,1.044,0,0,0-.122-.093c-.109-.114-.245-.2-.359-.308l-.02,0a5.282,5.282,0,0,0-.484-.4l0-.014a.464.464,0,0,0-.386-.125" transform="translate(0 -125.547)"/>
  </g>
</svg>
