<svg id="menu_icon" data-name="menu icon" xmlns="http://www.w3.org/2000/svg" xmlns:xlink="http://www.w3.org/1999/xlink" width="51.343" height="60.593" viewBox="0 0 51.343 60.593">
  <defs>
    <clipPath id="clip-path">
      <rect id="Rectangle_409" data-name="Rectangle 409" width="51.343" height="60.593" fill="#37ba89"/>
    </clipPath>
  </defs>
  <g id="menu_icon-2" data-name="menu icon">
    <g id="Group_386" data-name="Group 386" clip-path="url(#clip-path)">
      <path id="Path_520" data-name="Path 520" d="M205.445.163A9.58,9.58,0,0,1,207.861,0c2.587,0,5.173,0,7.761,0,.426.013.852,0,1.279,0a3.565,3.565,0,0,1,2.456.884l.06.057a5.1,5.1,0,0,1,.384.413c.076.1.142.2.213.3l.028.066a5.43,5.43,0,0,1,.354.949,8.794,8.794,0,0,1,.105,1.676c.02.347,0,.694.024,1.041,1.326,0,2.653,0,3.979,0q.009,4.636,0,9.272-12.815,0-25.63,0c-.006-.2,0-.409,0-.613q0-.638,0-1.276t0-1.273V10.22q0-.636,0-1.273V7.666q0-.637,0-1.275c0-.347,0-.7,0-1.043,1.367,0,2.736,0,4.1,0,.006-.791-.012-1.582.013-2.373l.045,0c0-.109.011-.218.019-.327l.034,0a3.173,3.173,0,0,1,.659-1.351,2.753,2.753,0,0,1,.325-.35,3.649,3.649,0,0,1,1.372-.784m5.521,3.542.062,0a2.346,2.346,0,0,0-.328.049l-.233.084a4.011,4.011,0,0,0-1.3.776c-.15.144-.3.291-.433.447l.069.018-.075-.006c-.06.1-.135.193-.2.288a3.658,3.658,0,0,0-.42.941l-.035-.019A4.375,4.375,0,0,0,207.961,8a5.954,5.954,0,0,0,.263.98l.078-.007-.064.017c.091.152.161.317.262.464a3.794,3.794,0,0,0,1.454,1.365l.205.087a2.452,2.452,0,0,1,.273.142l.055-.073c0,.022,0,.068,0,.09a5.063,5.063,0,0,1,.555.138l.053,0a4.12,4.12,0,0,0,1.5-.008,2.457,2.457,0,0,1,.264-.065,2.18,2.18,0,0,1,.3-.063L213.124,11l.108.027a1.794,1.794,0,0,1,.258-.126c.114-.04.218-.107.329-.155a3.513,3.513,0,0,0,1.008-.859,3.407,3.407,0,0,0,.286-.428l.066-.125a1.548,1.548,0,0,0,.148-.363l.034,0a5.059,5.059,0,0,0,.245-1.305,4.106,4.106,0,0,0-.141-1.276,4.513,4.513,0,0,0-.221-.584l-.066-.13-.064-.125c-.1-.174-.222-.333-.33-.5l-.062.015L214.759,5c-.156-.08-.227-.259-.388-.332,0-.015,0-.046,0-.061A5.089,5.089,0,0,0,213,3.8l-.051,0a3.475,3.475,0,0,0-1.979-.1" transform="translate(-186.084 -0.001)" fill="#37ba89"/>
      <path id="Path_521" data-name="Path 521" d="M.46,131.543a2.385,2.385,0,0,1,1.881-.928c2.046,0,4.092-.008,6.137.005.009,3.421-.008,6.843.009,10.263,8,.015,16,0,24,.006,3.416,0,6.833.005,10.249,0,.023-3.425,0-6.85.012-10.276,2.088.011,4.175,0,6.263.005a2.478,2.478,0,0,1,1.215.331,1.47,1.47,0,0,1,.513.464l.061.033a2.323,2.323,0,0,1,.536,1.288q0,23.666,0,47.333a4.509,4.509,0,0,1-.091,1.164,2.517,2.517,0,0,1-.626,1,3.084,3.084,0,0,1-.573.391,2.578,2.578,0,0,1-.773.231c-7.46.019-14.921,0-22.382.008H2.338a2.366,2.366,0,0,1-1.121-.282,2.48,2.48,0,0,1-.44-.3A2.357,2.357,0,0,1,0,180.651c.015-6.836,0-13.673.006-20.51q0-11.973,0-23.946C0,135.084.021,133.973,0,132.862c0-.041,0-.122,0-.163.011-.078.024-.155.038-.232a2.509,2.509,0,0,1,.417-.924m40.052,15.349q-.092.039-.185.075a2.036,2.036,0,0,0-.4.444c-.419.5-.824,1.013-1.251,1.508-.026.048-.049.1-.07.147l-.1,0,.008.142-.044-.048c-.291.409-.629.788-.953,1.173l.06.013-.066-.006a2.348,2.348,0,0,1-.291.351l0,.031a2.292,2.292,0,0,0-.246.277c-.094.117-.194.229-.286.349q-.117.15-.246.291v.028c-.176.181-.32.389-.487.577-.183.222-.374.437-.543.67h-.028l-.078.128c-.229.254-.429.532-.663.782l0,.029c-.12.109-.208.246-.328.355,0,.019,0,.058,0,.077-.082.019-.122.1-.172.155-.58.707-1.154,1.422-1.749,2.117l-.008.028-.089.133-.026,0a2.724,2.724,0,0,1-.213.242c0,.014,0,.043.006.057a9.433,9.433,0,0,0-.8.939l-.014-.006c-.163.2-.326.411-.5.606-.105.169-.254.305-.372.465a3.107,3.107,0,0,0-.2.252l-.019,0c-.213.3-.5.561-.691.872-.118.1-.2.241-.325.338l.042.062-.057-.017c-.653.8-1.306,1.6-1.967,2.389a1.16,1.16,0,0,0-.163.25l-.082.006.008.1-.019-.053c-.293.4-.66.759-.928,1.179l-.05,0-.084.143c-.066.078-.135.153-.208.225l0,.038c-.275.261-.48.586-.742.859l.066.016-.068-.008c-.076.1-.159.2-.239.306-.1.121-.2.243-.307.356l-.008.03-.083.109a6.267,6.267,0,0,0-.426.5c-.233.3-.51.581-.721.9a1.96,1.96,0,0,0-.325.379l-.059.043-.1-.016a9.072,9.072,0,0,0-.8-.69c-.249-.2-.5-.406-.744-.616-.174-.144-.354-.28-.513-.44l-.02.073.005-.075c-.617-.48-1.211-.987-1.817-1.481-.243-.216-.515-.4-.742-.63l-.014.07.012-.1-.1.007a2.921,2.921,0,0,0-.494-.441c-.23-.177-.435-.385-.68-.541l0-.017c-.12-.108-.246-.209-.374-.305-.3-.261-.62-.5-.92-.763l-.01.062.01-.073a3.693,3.693,0,0,1-.566-.475l-.058,0a7.015,7.015,0,0,0-.614-.529c-.307-.271-.638-.515-.943-.788l-.145-.1a.905.905,0,0,1-.179-.192l-.07.037.016-.063c-.473-.352-.906-.755-1.376-1.111a.733.733,0,0,0-1.024.205,2.708,2.708,0,0,1-.274.326l.008.07-.007-.061c-.25.316-.526.613-.763.939l-.03,0-.079.13c-.137.151-.257.318-.4.463l0,.03a4.485,4.485,0,0,0-.551.687H8.353a1.654,1.654,0,0,0-.429.683.813.813,0,0,0,.194.621l.071-.009-.058.008c.26.224.541.423.786.662l.022-.069-.006.074a1.37,1.37,0,0,1,.267.216l.035,0a1.973,1.973,0,0,0,.335.27l.008.028.093.084.046,0a4.442,4.442,0,0,0,.516.444c.613.494,1.218,1,1.834,1.487.231.2.491.378.71.6l.012-.068-.01.1.1,0a13.264,13.264,0,0,0,1.187.978l0,.024a4.034,4.034,0,0,1,.37.3,9.619,9.619,0,0,1,.851.7l.046-.049-.023.056c.251.2.509.395.742.616l.046-.03c.137.228.414.329.581.537l.059,0,.056.094c.283.2.542.432.815.647.1.077.2.156.293.237.87.716,1.748,1.422,2.624,2.132a.9.9,0,0,1,.151.142l.047,0a.886.886,0,0,0,.186.181c.3.228.575.494.892.7l0,.041a1.473,1.473,0,0,1,.386.3l.029,0c.251.224.513.439.782.642.161.1.44.195.576.01h.024c0-.044,0-.132,0-.176.116-.139.233-.277.342-.421h.014c.165-.209.334-.416.507-.617.1-.153.231-.284.345-.428l.161-.217.021,0c.248-.322.52-.625.769-.947a1.639,1.639,0,0,0,.253-.331,10.577,10.577,0,0,0,.7-.816c.482-.607,1-1.186,1.466-1.8a.721.721,0,0,0,.123-.1l-.01-.078.014.055c.293-.393.639-.746.915-1.149.069-.031.1-.1.149-.157a1.055,1.055,0,0,1,.2-.225l0-.041c.258-.257.471-.553.7-.831.092-.12.2-.228.285-.351a3.578,3.578,0,0,1,.242-.279l0-.052.069,0-.012-.1.022.058c.129-.188.3-.349.413-.544l.041,0c.367-.51.793-.98,1.189-1.469.286-.362.587-.713.874-1.075h.011l.072-.072-.009-.034c.284-.3.524-.63.792-.939.057-.075.113-.153.166-.23.145-.067.2-.262.325-.364.112-.16.248-.3.368-.455a3.354,3.354,0,0,1,.338-.382l-.052-.047.059.024c.19-.247.39-.485.594-.72l0-.017c.179-.185.315-.406.5-.584l-.074-.011.072.009c.228-.34.557-.619.75-.974l.01.045c.083-.116.173-.227.261-.339l.014,0c.707-.87,1.423-1.732,2.131-2.6.044-.054.088-.109.134-.162.293-.368.618-.713.882-1.1l.055,0a1.909,1.909,0,0,1,.355-.464l0-.026a5.162,5.162,0,0,0,.626-.783l.047,0c.181-.259.391-.5.595-.739v-.008c.151-.169.284-.353.437-.52l-.065-.01.069.008c.379-.506.81-.972,1.192-1.476.094-.16.231-.351.152-.542a1,1,0,0,0-.458-.449l0-.021L43.5,149l-.062.026.044-.046a1.6,1.6,0,0,1-.3-.237h-.033a4,4,0,0,0-.365-.308,1.731,1.731,0,0,0-.2-.154c-.181-.188-.407-.326-.595-.508l-.033,0a8.748,8.748,0,0,0-.8-.655l0-.023a.773.773,0,0,0-.64-.206" transform="translate(0 -122.27)" fill="#37ba89"/>
    </g>
  </g>
</svg>
