<svg id="Component_34_2" data-name="Component 34 – 2" xmlns="http://www.w3.org/2000/svg" xmlns:xlink="http://www.w3.org/1999/xlink" width="34.74" height="43.8" viewBox="0 0 34.74 43.8">
  <defs>
    <clipPath id="clip-path">
      <rect id="Rectangle_406" data-name="Rectangle 406" class="cls-1" width="34.74" height="43.8"/>
    </clipPath>
  </defs>
  <g id="Group_382" data-name="Group 382" class="cls-2">
    <path id="Path_513" data-name="Path 513" class="cls-1" d="M19.643.037c0,1.746-.008,3.38,0,5.014A3.777,3.777,0,0,0,23.67,9.064c1.633.01,3.266,0,4.969,0v16.8c-4.113-.663-7.617.485-10.091,3.917-2.485,3.448-2.463,7.136-.473,10.946-.315.024-.574.062-.834.062q-7.27.005-14.54,0c-1.866,0-2.7-.839-2.7-2.715q0-17.7,0-35.407C0,.86.851,0,2.65,0Q10.723-.005,18.8,0c.245,0,.491.02.847.036M14.252,15.111q4.339,0,8.678,0c.592,0,1.241,0,1.215-.8-.023-.727-.641-.721-1.2-.72q-8.583.006-17.166,0c-.591,0-1.241-.007-1.215.8.024.728.641.722,1.2.721q4.244-.008,8.489,0m.107,4.531q-4.292,0-8.583,0c-.593,0-1.24,0-1.211.8.027.728.645.718,1.2.717q8.583-.005,17.167,0c.593,0,1.24,0,1.211-.8-.026-.727-.646-.718-1.2-.717q-4.292.007-8.583,0M9.793,27.2c1.413,0,2.827-.006,4.24,0,.56,0,1.115-.132,1.016-.771a1.253,1.253,0,0,0-.96-.712c-2.857-.057-5.716-.03-8.574-.034-.541,0-1.04.2-.922.766a1.277,1.277,0,0,0,.962.714c1.409.081,2.825.034,4.238.034" transform="translate(0 0.001)"/>
    <path id="Path_514" data-name="Path 514" class="cls-1" d="M104.333,144.016a8.3,8.3,0,1,1-8.3,8.279,8.278,8.278,0,0,1,8.3-8.279m-.751,7.553a12.471,12.471,0,0,0-2.1.033c-.335.061-.607.467-.908.718.293.253.558.669.885.725a12.983,12.983,0,0,0,2.126.034,12.573,12.573,0,0,0,.032,2.063,1.272,1.272,0,0,0,.69.9c.568.115.794-.358.79-.906,0-.676,0-1.351,0-2.059.757,0,1.355-.017,1.951.005.568.021,1.119-.109,1.009-.758-.049-.292-.608-.635-.983-.705a11.1,11.1,0,0,0-1.978-.032,12.281,12.281,0,0,0-.035-2.118c-.062-.333-.481-.6-.739-.894-.246.3-.644.572-.7.9a12.556,12.556,0,0,0-.033,2.086" transform="translate(-77.894 -116.813)"/>
    <path id="Path_515" data-name="Path 515" class="cls-1" d="M112.047,7.092l6.179,6.179c-1.422,0-2.88.064-4.329-.023a2.029,2.029,0,0,1-1.831-1.875c-.075-1.426-.019-2.86-.019-4.282" transform="translate(-90.867 -5.752)"/>
  </g>
</svg>
