<svg xmlns="http://www.w3.org/2000/svg" width="23.997" height="23.998" viewBox="0 0 23.997 23.998">
  <defs>
    <style>
      .cls-1 {
        fill: #acacac;
      }
    </style>
  </defs>
  <path id="send" class="cls-1" d="M23.621.147A.837.837,0,0,1,23.982,1L20.554,21.571a.844.844,0,0,1-.428.6.814.814,0,0,1-.415.108.908.908,0,0,1-.322-.067l-6.065-2.477-3.241,3.951A.789.789,0,0,1,9.426,24a.727.727,0,0,1-.295-.053.845.845,0,0,1-.408-.315.831.831,0,0,1-.153-.492V18.464L20.14,4.285,5.825,16.671.536,14.5a.848.848,0,0,1-.108-1.527L22.711.12A.821.821,0,0,1,23.139,0,.83.83,0,0,1,23.621.147Z" transform="translate(0.002)"/>
</svg>
