<svg xmlns="http://www.w3.org/2000/svg" width="24" height="17.601" viewBox="0 0 24 17.601">
  <defs>
    <style>
      .cls-1 {
        fill: #bcbcbc;
      }
    </style>
  </defs>
  <g id="__TEMP__SVG__" transform="translate(-353.346 -64.544)">
    <path id="Path_2811" data-name="Path 2811" class="cls-1" d="M61.409,58.208a3.2,3.2,0,1,1-3.2-3.2A3.2,3.2,0,0,1,61.409,58.208Z" transform="translate(307.138 15.136)"/>
    <path id="Path_2812" data-name="Path 2812" class="cls-1" d="M28.541,31.448A13.352,13.352,0,0,0,16.588,22.92,13.352,13.352,0,0,0,4.636,31.448a.8.8,0,0,0,0,.544,13.352,13.352,0,0,0,11.952,8.529,13.352,13.352,0,0,0,11.953-8.528.8.8,0,0,0,0-.544ZM16.588,36.921a5.2,5.2,0,1,1,5.2-5.2A5.2,5.2,0,0,1,16.588,36.921Z" transform="translate(348.758 41.624)"/>
  </g>
</svg>
