<svg xmlns="http://www.w3.org/2000/svg" width="39.299" height="45.849" viewBox="0 0 39.299 45.849">
  <path id="Icon_metro-file-word" data-name="Icon metro-file-word" d="M40.13,11.926a5.953,5.953,0,0,1,1.228,1.944,5.9,5.9,0,0,1,.512,2.252V45.6a2.446,2.446,0,0,1-2.456,2.456H5.027A2.446,2.446,0,0,1,2.571,45.6V4.66A2.446,2.446,0,0,1,5.027,2.2H27.951a5.906,5.906,0,0,1,2.252.512,5.953,5.953,0,0,1,1.945,1.228ZM28.77,5.683V15.3h9.62a2.8,2.8,0,0,0-.563-1.049L29.819,6.246a2.794,2.794,0,0,0-1.049-.563Zm9.825,39.094v-26.2H27.951a2.446,2.446,0,0,1-2.456-2.456V5.478H5.846v39.3H38.595ZM8.532,21.853V24.59h1.791l4.2,16.912h4.068l3.275-12.409a6.961,6.961,0,0,0,.307-1.791h.1l.077.614a4.973,4.973,0,0,1,.09.512,4.132,4.132,0,0,0,.141.665L25.853,41.5h4.068l4.2-16.912h1.791V21.853H28.233V24.59h2.3L28,35.8a7.148,7.148,0,0,0-.179,1.177l-.051.537h-.1l-.077-.537q-.026-.128-.1-.537t-.128-.64L23.678,21.853H20.762L17.077,35.8q-.051.23-.115.627t-.09.55l-.1.537h-.1l-.051-.537a7.149,7.149,0,0,0-.179-1.177L13.9,24.59h2.3V21.853H8.532Z" transform="translate(-2.571 -2.204)"/>
</svg>
