<svg xmlns="http://www.w3.org/2000/svg" xmlns:xlink="http://www.w3.org/1999/xlink" width="76" height="76" viewBox="0 0 76 76">
  <defs>
    <filter id="Ellipse_110" x="0" y="0" width="76" height="76" filterUnits="userSpaceOnUse">
      <feOffset dy="3" input="SourceAlpha"/>
      <feGaussianBlur stdDeviation="3" result="blur"/>
      <feFlood flood-opacity="0.161"/>
      <feComposite operator="in" in2="blur"/>
      <feComposite in="SourceGraphic"/>
    </filter>
    <clipPath id="clip-path">
      <rect id="Rectangle_406" data-name="Rectangle 406" width="14.69" height="17.602" fill="none"/>
    </clipPath>
  </defs>
  <g id="Group_2829" data-name="Group 2829" transform="translate(-5279 -2424)">
    <g transform="matrix(1, 0, 0, 1, 5279, 2424)" filter="url(#Ellipse_110)">
      <circle id="Ellipse_110-2" data-name="Ellipse 110" cx="29" cy="29" r="29" transform="translate(9 6)" fill="#f3a449"/>
    </g>
    <g id="Group_2823" data-name="Group 2823" transform="translate(5302.502 2444.976)">
      <text id="Chalan" transform="translate(0.497 27.707)" fill="#fff" font-size="8" font-family="Montserrat-Medium, Montserrat" font-weight="500" letter-spacing="0.02em"><tspan x="0" y="0">Chalan</tspan></text>
      <g id="Group_2805" data-name="Group 2805" transform="translate(7.259)">
        <g id="Group_2801" data-name="Group 2801" transform="translate(0)">
          <g id="Component_34_21" data-name="Component 34 – 21" transform="translate(3.195)">
            <g id="Group_382" data-name="Group 382" clip-path="url(#clip-path)">
              <path id="Path_513" data-name="Path 513" d="M8.306.015c0,.7,0,1.358,0,2.015a1.559,1.559,0,0,0,1.7,1.613c.691,0,1.381,0,2.1,0V10.4A4.2,4.2,0,0,0,7.843,11.97a3.762,3.762,0,0,0-.2,4.4c-.133.01-.243.025-.353.025q-3.074,0-6.149,0C.353,16.394,0,16.057,0,15.3Q0,8.189,0,1.074C0,.345.36,0,1.12,0Q4.534,0,7.948,0c.1,0,.208.008.358.014M6.027,6.072q1.835,0,3.669,0c.25,0,.525,0,.514-.32-.01-.292-.271-.29-.507-.29q-3.63,0-7.259,0c-.25,0-.525,0-.514.32.01.292.271.29.507.29q1.795,0,3.59,0m.045,1.821q-1.815,0-3.63,0c-.251,0-.524,0-.512.321.011.292.273.288.508.288q3.63,0,7.259,0c.251,0,.524,0,.512-.322-.011-.292-.273-.289-.508-.288q-1.815,0-3.63,0M4.141,10.93c.6,0,1.2,0,1.793,0,.237,0,.472-.053.43-.31a.527.527,0,0,0-.406-.286c-1.208-.023-2.417-.012-3.626-.014-.229,0-.44.081-.39.308a.538.538,0,0,0,.407.287c.6.033,1.194.014,1.792.014" transform="translate(0 0.001)" fill="#fff"/>
              <path id="Path_515" data-name="Path 515" d="M112.036,7.092l2.613,2.483c-.6,0-1.218.026-1.83-.009a.837.837,0,0,1-.774-.753c-.032-.573-.008-1.149-.008-1.721" transform="translate(-103.079 -6.554)" fill="#fff"/>
              <path id="Path_2814" data-name="Path 2814" d="M50.007,65.685v5.986H44.738s-.026-4.576,0-4.613,3.28-2.4,3.28-2.4Z" transform="translate(-37.897 -55.275)" fill="#fff"/>
              <g id="Group_2800" data-name="Group 2800" transform="translate(0.946 3.653)">
                <path id="Path_2842" data-name="Path 2842" d="M196.027,59.646a.51.51,0,0,1,.7.063.525.525,0,0,1-.138.168,1.5,1.5,0,0,0-.155-.085.268.268,0,0,0-.308.129.622.622,0,0,0-.036.468.279.279,0,0,0,.26.216c.1.01.18-.066.261-.117a.853.853,0,0,1,.141.155.515.515,0,0,1-.738.092.676.676,0,0,1-.219-.563.66.66,0,0,1,.236-.525" transform="translate(-195.79 -59.538)" fill="#f3a449"/>
                <path id="Path_2843" data-name="Path 2843" d="M247.637,60.524a1.015,1.015,0,0,1,.249,0c.015.156,0,.314.006.471a1.612,1.612,0,0,0,.42,0c0-.157-.009-.314.006-.471a1.017,1.017,0,0,1,.249,0c.014.275,0,.551.006.827,0,.142.007.285-.006.427a1.026,1.026,0,0,1-.249,0c-.015-.176,0-.353-.006-.529-.137-.005-.274,0-.411,0-.018.174,0,.35-.008.525a.738.738,0,0,1-.257.006c-.015-.275,0-.551-.006-.827,0-.142-.007-.285.006-.426" transform="translate(-246.49 -60.494)" fill="#f3a449"/>
                <path id="Path_2844" data-name="Path 2844" d="M297.35,60.49a1.294,1.294,0,0,1,.281,0,2.676,2.676,0,0,1,.108.318c.063.2.129.405.191.608a2.272,2.272,0,0,1,.093.325,1.013,1.013,0,0,1-.262.007c-.039-.1-.061-.211-.094-.316a1.3,1.3,0,0,0-.357,0c-.031.1-.047.2-.087.3a.545.545,0,0,1-.257.008,1.011,1.011,0,0,1,.055-.217c.111-.344.217-.689.328-1.033m.137.309c-.035.132-.078.262-.1.4a2.068,2.068,0,0,0,.217,0,3.435,3.435,0,0,0-.116-.4" transform="translate(-294.744 -60.459)" fill="#f3a449"/>
                <path id="Path_2845" data-name="Path 2845" d="M351.386,60.512a.772.772,0,0,1,.252,0c.013.339,0,.679.008,1.019.159.006.32-.01.479.008a.962.962,0,0,1,0,.224c-.132.014-.265.005-.4.007a2.422,2.422,0,0,1-.343-.01c0-.416,0-.832,0-1.247" transform="translate(-347.966 -60.48)" fill="#f3a449"/>
                <path id="Path_2846" data-name="Path 2846" d="M394.095,60.511a.819.819,0,0,1,.255,0c.013.339,0,.679.008,1.019.159.007.319-.011.478.009a.882.882,0,0,1,0,.223c-.125.013-.25.006-.375.007a2.861,2.861,0,0,1-.368-.009c-.013-.26,0-.52-.006-.779,0-.156-.005-.313,0-.469" transform="translate(-389.733 -60.48)" fill="#f3a449"/>
                <path id="Path_2847" data-name="Path 2847" d="M430.373,61.316c.09-.275.168-.555.267-.827a1.48,1.48,0,0,1,.281,0c.1.286.181.576.275.863a2.745,2.745,0,0,1,.109.388.951.951,0,0,1-.265,0c-.034-.1-.056-.214-.094-.317a2.5,2.5,0,0,0-.346,0c-.035.1-.057.214-.094.318a.906.906,0,0,1-.258-.006,4.014,4.014,0,0,1,.126-.425m.291-.115a2.1,2.1,0,0,0,.218,0c-.028-.141-.074-.277-.1-.417q-.064.206-.114.416" transform="translate(-425.097 -60.463)" fill="#f3a449"/>
                <path id="Path_2848" data-name="Path 2848" d="M484.633,60.5a1.317,1.317,0,0,1,.246,0c.159.256.284.534.435.8,0-.264-.015-.528,0-.792a.859.859,0,0,1,.241,0c.01.23,0,.461,0,.692,0,.186.006.372,0,.558a.9.9,0,0,1-.255,0c-.151-.266-.285-.541-.436-.806a7.871,7.871,0,0,1,.009.8.859.859,0,0,1-.241,0c-.015-.194,0-.388-.006-.582,0-.224-.009-.448.006-.671" transform="translate(-478.281 -60.475)" fill="#f3a449"/>
              </g>
              <rect id="Rectangle_422" data-name="Rectangle 422" width="8.71" height="6.222" transform="translate(1.746 5.302)" fill="#fff"/>
              <line id="Line_63" data-name="Line 63" x2="8.763" transform="translate(1.382 6.235)" fill="none" stroke="#f3a449" stroke-linecap="round" stroke-width="1"/>
              <line id="Line_64" data-name="Line 64" x2="6.275" transform="translate(1.382 8.102)" fill="none" stroke="#f3a449" stroke-linecap="round" stroke-width="1"/>
              <line id="Line_65" data-name="Line 65" x2="8.763" transform="translate(1.382 9.968)" fill="none" stroke="#f3a449" stroke-linecap="round" stroke-width="1"/>
            </g>
          </g>
          <g id="Group_2799" data-name="Group 2799" transform="translate(0 12.248)">
            <path id="Path_2841" data-name="Path 2841" d="M44.289,391.055a.617.617,0,0,1,.25-.058c1.567,0,3.135,0,4.7,0a.455.455,0,0,1,.378.453c0,.255,0,.51,0,.764a5.832,5.832,0,0,1,.663.021.863.863,0,0,1,.666.476c.111.229.226.457.337.686a.65.65,0,0,0,.21.289,5.685,5.685,0,0,0,.665.236.418.418,0,0,1,.211.289,1.363,1.363,0,0,1,.032.421q0,.527,0,1.053a.381.381,0,0,1-.146.282.672.672,0,0,1-.516.148,1.3,1.3,0,0,1-.4-.027,1.175,1.175,0,0,0-.179-.656,1.047,1.047,0,0,0-.7-.459,1.122,1.122,0,0,0-.633.088,1.06,1.06,0,0,0-.5.479,1.382,1.382,0,0,0-.122.548.378.378,0,0,1-.136.028c-.67,0-1.34,0-2.009,0a.1.1,0,0,1-.11-.057c-.012-.072-.008-.146-.021-.217a1.032,1.032,0,0,0-.473-.718,1.109,1.109,0,0,0-.856-.128,1.075,1.075,0,0,0-.753.814c-.011.092-.021.185-.038.276a.834.834,0,0,1-.461,0,.52.52,0,0,1-.366-.371,1.082,1.082,0,0,1-.017-.269c0-.287,0-.575,0-.862a.182.182,0,0,1,.188-.191h1.631a.439.439,0,0,0,.349-.149.536.536,0,0,0,.1-.426.39.39,0,0,0-.269-.348,1.2,1.2,0,0,0-.3-.036c-.5,0-1.009,0-1.513,0-.066,0-.15-.014-.173-.087a.486.486,0,0,1-.007-.24c.018-.094.128-.1.2-.1h2.458a.369.369,0,0,0,.3-.153.635.635,0,0,0,.055-.515.381.381,0,0,0-.376-.266c-.82,0-1.639,0-2.459,0a.174.174,0,0,1-.188-.191,1.417,1.417,0,0,1,.067-.628.466.466,0,0,1,.25-.2M49.62,392.6q0,.6,0,1.192c.48,0,.959,0,1.439,0-.119-.232-.23-.468-.346-.7a.767.767,0,0,0-.406-.427,1.619,1.619,0,0,0-.688-.065" transform="translate(-43.451 -390.997)" fill="#fff" stroke="#f3a449" stroke-width="1.2"/>
            <path id="Path_2837" data-name="Path 2837" d="M44.289,391.055a.617.617,0,0,1,.25-.058c1.567,0,3.135,0,4.7,0a.455.455,0,0,1,.378.453c0,.255,0,.51,0,.764a5.832,5.832,0,0,1,.663.021.863.863,0,0,1,.666.476c.111.229.226.457.337.686a.65.65,0,0,0,.21.289,5.685,5.685,0,0,0,.665.236.418.418,0,0,1,.211.289,1.363,1.363,0,0,1,.032.421q0,.527,0,1.053a.381.381,0,0,1-.146.282.672.672,0,0,1-.516.148,1.3,1.3,0,0,1-.4-.027,1.175,1.175,0,0,0-.179-.656,1.047,1.047,0,0,0-.7-.459,1.122,1.122,0,0,0-.633.088,1.06,1.06,0,0,0-.5.479,1.382,1.382,0,0,0-.122.548.378.378,0,0,1-.136.028c-.67,0-1.34,0-2.009,0a.1.1,0,0,1-.11-.057c-.012-.072-.008-.146-.021-.217a1.032,1.032,0,0,0-.473-.718,1.109,1.109,0,0,0-.856-.128,1.075,1.075,0,0,0-.753.814c-.011.092-.021.185-.038.276a.834.834,0,0,1-.461,0,.52.52,0,0,1-.366-.371,1.082,1.082,0,0,1-.017-.269c0-.287,0-.575,0-.862a.182.182,0,0,1,.188-.191h1.631a.439.439,0,0,0,.349-.149.536.536,0,0,0,.1-.426.39.39,0,0,0-.269-.348,1.2,1.2,0,0,0-.3-.036c-.5,0-1.009,0-1.513,0-.066,0-.15-.014-.173-.087a.486.486,0,0,1-.007-.24c.018-.094.128-.1.2-.1h2.458a.369.369,0,0,0,.3-.153.635.635,0,0,0,.055-.515.381.381,0,0,0-.376-.266c-.82,0-1.639,0-2.459,0a.174.174,0,0,1-.188-.191,1.417,1.417,0,0,1,.067-.628.466.466,0,0,1,.25-.2M49.62,392.6q0,.6,0,1.192c.48,0,.959,0,1.439,0-.119-.232-.23-.468-.346-.7a.767.767,0,0,0-.406-.427,1.619,1.619,0,0,0-.688-.065" transform="translate(-43.451 -390.997)" fill="#fff"/>
            <path id="Path_2838" data-name="Path 2838" d="M22.261,443a.516.516,0,0,1,.109-.01c.945,0,1.89,0,2.835,0a.264.264,0,0,1,.262.287.272.272,0,0,1-.238.311c-.929,0-1.859,0-2.788,0-.094,0-.2.019-.279-.054a.335.335,0,0,1-.083-.361.228.228,0,0,1,.181-.176" transform="translate(-22.062 -441.661)" fill="#fff"/>
            <path id="Path_2839" data-name="Path 2839" d="M89.81,565.9a1.383,1.383,0,0,1,.383,0,.885.885,0,0,1,.547.427.858.858,0,0,1,.094.562.834.834,0,0,1-.845.7.759.759,0,0,1-.576-.232.852.852,0,0,1,.4-1.459m.118.5a.347.347,0,0,0-.25.452.337.337,0,0,0,.483.192.379.379,0,0,0,.183-.294.46.46,0,0,0-.089-.242.338.338,0,0,0-.326-.108" transform="translate(-87.556 -561.612)" fill="#fff"/>
            <path id="Path_2840" data-name="Path 2840" d="M275.827,565.906a1.32,1.32,0,0,1,.36,0,.869.869,0,0,1,.607.51.854.854,0,0,1-.354,1.068.689.689,0,0,1-.314.112,1.6,1.6,0,0,1-.321-.012.942.942,0,0,1-.415-.249,1.034,1.034,0,0,1-.175-.276.883.883,0,0,1-.043-.451.863.863,0,0,1,.655-.7m.118.5a.357.357,0,0,0-.158.081.346.346,0,0,0,.026.538.334.334,0,0,0,.53-.237.346.346,0,0,0-.4-.383" transform="translate(-269.179 -561.623)" fill="#fff"/>
          </g>
        </g>
      </g>
    </g>
  </g>
</svg>
