<svg xmlns="http://www.w3.org/2000/svg" width="25.341" height="13.887" viewBox="0 0 25.341 13.887">
  <path id="attachment" d="M6.944,20.137a6.731,6.731,0,0,1-4.9-2.018A6.652,6.652,0,0,1,0,13.194,6.652,6.652,0,0,1,2.047,8.268a6.731,6.731,0,0,1,4.9-2.018H20.238a4.925,4.925,0,0,1,3.62,1.483,4.856,4.856,0,0,1,1.483,3.561,4.856,4.856,0,0,1-1.483,3.561,4.925,4.925,0,0,1-3.62,1.483H9.5A3.14,3.14,0,0,1,6.35,13.194,3.141,3.141,0,0,1,9.5,10.048h9.5v1.9H9.5a1.246,1.246,0,1,0,0,2.493H20.237a3.132,3.132,0,0,0,2.255-.92,3.083,3.083,0,0,0,0-4.451,3.128,3.128,0,0,0-2.255-.92H6.944A4.856,4.856,0,0,0,3.383,9.632,4.856,4.856,0,0,0,1.9,13.193a4.856,4.856,0,0,0,1.483,3.561,4.856,4.856,0,0,0,3.561,1.483H18.991v1.9H6.944Z" transform="translate(0 -6.25)" fill="#484848"/>
</svg>
