<svg xmlns="http://www.w3.org/2000/svg" width="64.109" height="63.586" viewBox="0 0 64.109 63.586">
  <g id="administrator-solid" transform="translate(-2 -2.3)">
    <path id="Path_2896" data-name="Path 2896" d="M32.786,14.358A12.058,12.058,0,1,1,20.728,2.3,12.058,12.058,0,0,1,32.786,14.358Z" transform="translate(6.734 0)" fill="#37ba89"/>
    <path id="Path_2897" data-name="Path 2897" d="M31.02,46.071a4.321,4.321,0,0,1-.764-5.125l1.065-2.01-2.191-.663a4.3,4.3,0,0,1-3.014-4.22v-4.12a4.341,4.341,0,0,1,3.075-4.16l2.191-.663L30.336,23.1a4.361,4.361,0,0,1,.7-5.064,38.022,38.022,0,0,0-4.662-.322A31.311,31.311,0,0,0,2,28.486V44.061a2.01,2.01,0,0,0,2.01,2.01Z" transform="translate(0 15.555)" fill="#37ba89"/>
    <path id="Path_2898" data-name="Path 2898" d="M51.834,31.224l-4.019-1.206a13.525,13.525,0,0,0-1.166-2.854l2.01-3.738a.7.7,0,0,0-.141-.864L45.6,19.629a.764.764,0,0,0-.864-.141L41.022,21.5a15.555,15.555,0,0,0-2.874-1.206l-1.226-4.019a.764.764,0,0,0-.723-.5h-4.18a.764.764,0,0,0-.7.523l-1.206,4.019A13.766,13.766,0,0,0,27.2,21.538l-3.637-2.01a.764.764,0,0,0-.884.121l-2.954,2.894a.744.744,0,0,0-.141.884l2.01,3.658a14.55,14.55,0,0,0-1.306,2.874l-4.019,1.226a.723.723,0,0,0-.523.7v4.12a.723.723,0,0,0,.523.7l4.019,1.226a14.65,14.65,0,0,0,1.206,2.834l-2.01,3.818a.744.744,0,0,0,.141.884l2.994,2.914a.764.764,0,0,0,.884.121l3.758-2.01a14.248,14.248,0,0,0,2.814,1.146l1.206,4.12a.764.764,0,0,0,.723.523h4.12a.764.764,0,0,0,.7-.523l1.206-4.12A13.424,13.424,0,0,0,40.8,46.5l3.8,2.01a.764.764,0,0,0,.884-.121l2.934-2.914a.764.764,0,0,0,.121-.884l-2.01-3.778a13.906,13.906,0,0,0,1.146-2.773l4.019-1.226a.784.784,0,0,0,.543-.7v-4.16A.8.8,0,0,0,51.834,31.224ZM34.088,40.71A6.712,6.712,0,1,1,40.78,34a6.712,6.712,0,0,1-6.692,6.712Z" transform="translate(13.873 13.6)" fill="#37ba89"/>
  </g>
</svg>
