<svg xmlns="http://www.w3.org/2000/svg" width="65.31" height="65.31" viewBox="0 0 65.31 65.31">
  <path id="user" d="M51.136,46.716c-8.563-3.12-11.3-5.753-11.3-11.391,0-3.383,2.806-5.577,3.763-8.476a68.858,68.858,0,0,0,1.97-8.831,55.119,55.119,0,0,0,.893-6.125C46.765,8.574,44.543,0,32.655,0s-14.114,8.574-13.8,11.9a55.549,55.549,0,0,0,.893,6.125,68.529,68.529,0,0,0,1.963,8.831c.956,2.9,3.766,5.092,3.766,8.476,0,5.638-2.738,8.271-11.3,11.391C5.579,49.844,0,52.926,0,55.1v10.2H65.31V55.1C65.31,52.93,59.727,49.848,51.136,46.716Z" transform="translate(0)" fill="#458ffe"/>
</svg>
