<svg id="Component_32_2" data-name="Component 32 – 2" xmlns="http://www.w3.org/2000/svg" xmlns:xlink="http://www.w3.org/1999/xlink" width="40.395" height="32.165" viewBox="0 0 40.395 32.165">
  <defs>
    <clipPath id="clip-path">
      <rect id="Rectangle_404" data-name="Rectangle 404" class="cls-1" width="40.395" height="32.165"/>
    </clipPath>
  </defs>
  <g id="Group_378" data-name="Group 378" class="cls-2">
    <path id="Path_509" data-name="Path 509" class="cls-1" d="M0,16.084a4.351,4.351,0,0,1,.5-.591Q9.264,8.177,18.039.874A3.1,3.1,0,0,1,22.361.88Q25.1,3.166,27.838,5.458c.1.083.2.161.359.285.01-.182.022-.3.022-.428,0-1.394,0-2.787,0-4.181,0-.8.262-1.054,1.068-1.055q2.15,0,4.3,0c.767,0,1.043.28,1.043,1.05,0,3.195,0,6.39-.007,9.585a.762.762,0,0,0,.315.662c1.645,1.352,3.28,2.717,4.918,4.077.667.554.7.933.155,1.589-.405.484-.808.97-1.216,1.45a.876.876,0,0,1-1.425.122q-8.33-6.944-16.659-13.89c-.161-.134-.323-.267-.515-.426-.629.523-1.254,1.041-1.877,1.56L3.055,18.589a.893.893,0,0,1-1.483-.126C1.044,17.831.524,17.193,0,16.558v-.473" transform="translate(0 0)"/>
    <path id="Path_510" data-name="Path 510" class="cls-1" d="M70.049,84.867V75.3H63.62v9.594H54.306A1.684,1.684,0,0,1,52.4,82.982q0-5.719,0-11.437a.73.73,0,0,1,.274-.644q6.915-5.683,13.817-11.382c.11-.09.225-.174.357-.276l3.081,2.537q5.522,4.552,11.047,9.1a.732.732,0,0,1,.3.63c-.008,3.878,0,7.756-.007,11.634a1.625,1.625,0,0,1-1.717,1.746c-3.076.01-6.153,0-9.229,0-.076,0-.152-.015-.269-.026" transform="translate(-46.633 -52.731)"/>
  </g>
</svg>
