<svg xmlns="http://www.w3.org/2000/svg" xmlns:xlink="http://www.w3.org/1999/xlink" width="76" height="76" viewBox="0 0 76 76">
  <defs>
    <filter id="Ellipse_111" x="0" y="0" width="76" height="76" filterUnits="userSpaceOnUse">
      <feOffset dy="3" input="SourceAlpha"/>
      <feGaussianBlur stdDeviation="3" result="blur"/>
      <feFlood flood-opacity="0.161"/>
      <feComposite operator="in" in2="blur"/>
      <feComposite in="SourceGraphic"/>
    </filter>
  </defs>
  <g id="Group_2837" data-name="Group 2837" transform="translate(-5279 -2493)">
    <g transform="matrix(1, 0, 0, 1, 5279, 2493)" filter="url(#Ellipse_111)">
      <circle id="Ellipse_111-2" data-name="Ellipse 111" cx="29" cy="29" r="29" transform="translate(9 6)" fill="#f36f65"/>
    </g>
    <g id="Group_2825" data-name="Group 2825" transform="translate(5304.189 2513.769)">
      <text id="Image" transform="translate(-0.189 26.463)" fill="#fff" font-size="8" font-family="Montserrat-Medium, Montserrat" font-weight="500" letter-spacing="0.02em"><tspan x="0" y="0">Image</tspan></text>
      <g id="Group_2839" data-name="Group 2839" transform="translate(-33.969 -1979.769)">
        <path id="Path_2893" data-name="Path 2893" d="M43.659,41.563H37.033a1.5,1.5,0,0,1-1.52-1.05,1.812,1.812,0,0,1-.071-.521q-.006-5.135,0-10.269a1.493,1.493,0,0,1,1.573-1.573H50.3a1.494,1.494,0,0,1,1.576,1.573V39.992a1.5,1.5,0,0,1-1.591,1.576Zm-.009-.711c2.209,0,4.418-.009,6.627.007a.862.862,0,0,0,.907-.9c-.01-3.4-.006-6.8-.006-10.205a.8.8,0,0,0-.9-.9H37.039a.8.8,0,0,0-.9.9q0,5.1-.006,10.205a.86.86,0,0,0,.906.9C39.242,40.847,41.446,40.852,43.649,40.852Z" transform="translate(3.341 1952.333)" fill="#fff"/>
        <path id="Path_2894" data-name="Path 2894" d="M47.293,35.169l-1.844,1.849-.364.363c-.238.236-.41.237-.647,0l-.548-.544c-.007-.007-.02-.008-.047-.019-.245.247-.494.5-.744.749l-1.892,1.9a.891.891,0,0,1-.115.1.342.342,0,0,1-.453-.044.35.35,0,0,1-.032-.442,1.018,1.018,0,0,1,.116-.126l2.8-2.805c.262-.262.411-.261.679,0l.584.586a1.079,1.079,0,0,1,.112-.171q1.041-1.041,2.083-2.09c.244-.243.422-.237.651.018l4.009,4.452a.77.77,0,0,1,.16.238.332.332,0,0,1-.156.4.337.337,0,0,1-.436-.072c-.208-.218-.4-.44-.6-.662l-3.228-3.584C47.362,35.243,47.334,35.213,47.293,35.169Z" transform="translate(0.918 1949.416)" fill="#fff"/>
        <path id="Path_2895" data-name="Path 2895" d="M46.192,46.893H51.4c.261,0,.417.116.427.323a.335.335,0,0,1-.282.371,1.124,1.124,0,0,1-.222.014H41.051a1.123,1.123,0,0,1-.222-.014.333.333,0,0,1-.283-.353.343.343,0,0,1,.291-.333,1.137,1.137,0,0,1,.188-.007Z" transform="translate(0.918 1943.442)" fill="#fff"/>
        <path id="Path_2896" data-name="Path 2896" d="M42.2,33.015a1.263,1.263,0,1,1-1.26,1.25A1.263,1.263,0,0,1,42.2,33.015Zm0,.7a.563.563,0,1,0,.566.56.563.563,0,0,0-.566-.56Z" transform="translate(0.729 1950.025)" fill="#fff"/>
      </g>
    </g>
  </g>
</svg>
