<svg id="__TEMP__SVG__" xmlns="http://www.w3.org/2000/svg" width="17.032" height="24" viewBox="0 0 17.032 24">
  <path id="Path_2853" data-name="Path 2853" d="M19.56,12.738H8.722a1.548,1.548,0,0,0-1.548,1.548v7.742a1.548,1.548,0,0,0,1.548,1.548H19.56a1.548,1.548,0,0,0,1.548-1.548V14.286A1.548,1.548,0,0,0,19.56,12.738ZM8.722,11.19a3.1,3.1,0,0,0-3.1,3.1v7.742a3.1,3.1,0,0,0,3.1,3.1H19.56a3.1,3.1,0,0,0,3.1-3.1V14.286a3.1,3.1,0,0,0-3.1-3.1Zm0-4.645a5.419,5.419,0,0,1,10.839,0V11.19H18.012V6.544a3.871,3.871,0,1,0-7.742,0V11.19H8.722Z" transform="translate(-5.625 -1.125)" fill="#484848" fill-rule="evenodd"/>
</svg>
