<svg xmlns="http://www.w3.org/2000/svg" width="130.68" height="88.604" viewBox="0 0 130.68 88.604">
  <defs>
    <style>
      .cls-1 {
        fill: #ee4d14;
      }

      .cls-2 {
        fill: #fff;
      }
    </style>
  </defs>
  <g id="Logo" transform="translate(-1862.012 91.628)">
    <g id="Group_354" data-name="Group 354" transform="translate(-10.512 -21.681)">
      <path id="Path_434" data-name="Path 434" class="cls-1" d="M61.435,40.243A3.292,3.292,0,0,1,58.356,38.2l-.048-.141-2.638-9.74a.816.816,0,0,0-.747-.6l-11.565-.594a3.344,3.344,0,0,1-1.292-6.138L74.753.41h0a2.563,2.563,0,0,1,3.058.208,2.563,2.563,0,0,1,.741,2.974L64.535,38.156a3.292,3.292,0,0,1-3.075,2.087ZM60.412,37.4a1.141,1.141,0,0,0,2.081-.073L76.51,2.763a.4.4,0,0,0-.583-.488L43.239,22.851a1.141,1.141,0,0,0,.4,2.086l11.4.58A3.014,3.014,0,0,1,57.8,27.744Z" transform="translate(1877.334 -69.947)"/>
      <path id="Path_435" data-name="Path 435" class="cls-2" d="M57.612,22.043a1.123,1.123,0,0,0-1.117,1.239,1.167,1.167,0,0,0,1.181,1.008H65.1L58.5,45.062,24.528,52.548l-8.13-28h7.437a1.167,1.167,0,0,0,1.181-1.008A1.124,1.124,0,0,0,23.9,22.306H15.745l-2.527-8.7H1.187A1.167,1.167,0,0,0,.006,14.612a1.123,1.123,0,0,0,1.117,1.239H11.531L22.5,53.631a1.74,1.74,0,0,0,2.044,1.214l34.6-7.627a1.939,1.939,0,0,0,1.431-1.307l7.044-22.153a1.316,1.316,0,0,0-1.254-1.715Z" transform="translate(1896.058 -76.236)"/>
      <path id="Path_436" data-name="Path 436" class="cls-2" d="M50.471,104.485a6.661,6.661,0,1,1,6.66-6.661,6.668,6.668,0,0,1-6.66,6.661m0-11.075a4.414,4.414,0,1,0,4.414,4.414,4.419,4.419,0,0,0-4.414-4.414" transform="translate(1875.804 -112.092)"/>
      <path id="Path_437" data-name="Path 437" class="cls-2" d="M91.085,104.485a6.661,6.661,0,1,1,6.66-6.661,6.668,6.668,0,0,1-6.66,6.661m0-11.075A4.414,4.414,0,1,0,95.5,97.824a4.42,4.42,0,0,0-4.414-4.414" transform="translate(1857.028 -112.092)"/>
    </g>
    <g id="Group_353" data-name="Group 353">
      <path id="Path_438" data-name="Path 438" class="cls-1" d="M146.062,36.8h-3.248V50.664h1.565V38.246h1.683c1.3,0,1.9.58,1.9,1.824v2.355c0,1.2-.6,1.764-1.885,1.764h-1.054v1.5h1.095a3.39,3.39,0,0,0,2.545-.9,3.285,3.285,0,0,0,.863-2.369V40.07a3.261,3.261,0,0,0-.875-2.37,3.483,3.483,0,0,0-2.594-.9" transform="translate(1719.198 -53.89)"/>
      <path id="Path_439" data-name="Path 439" class="cls-1" d="M172.668,41.9V40.071a3.261,3.261,0,0,0-.875-2.37,3.484,3.484,0,0,0-2.594-.9h-3.248V50.665h1.565V45.171H169.2c.1,0,.187,0,.26-.006l1.967,5.5h1.714l-2.148-5.851a2.918,2.918,0,0,0,1.676-2.911m-5.152-3.656H169.2c1.3,0,1.9.58,1.9,1.824V41.9c0,1.217-.605,1.784-1.9,1.784h-1.683Z" transform="translate(1704.637 -53.891)"/>
      <path id="Path_440" data-name="Path 440" class="cls-1" d="M193.828,36.26a3.473,3.473,0,0,0-2.606.919,3.336,3.336,0,0,0-.884,2.409V47.2a3.336,3.336,0,0,0,.883,2.409,4.137,4.137,0,0,0,5.2,0A3.36,3.36,0,0,0,197.3,47.2V39.588a3.36,3.36,0,0,0-.872-2.408,3.437,3.437,0,0,0-2.6-.92m0,12.8c-1.313,0-1.925-.6-1.925-1.885V39.608c0-1.286.612-1.885,1.925-1.885s1.9.6,1.9,1.885v7.567c0,1.286-.605,1.885-1.9,1.885" transform="translate(1689.289 -53.549)"/>
      <path id="Path_441" data-name="Path 441" class="cls-1" d="M218.865,36.26a3.473,3.473,0,0,0-2.605.919,3.337,3.337,0,0,0-.884,2.409V47.2a3.335,3.335,0,0,0,.883,2.409,4.137,4.137,0,0,0,5.2,0,3.361,3.361,0,0,0,.872-2.408V46.082H220.77v1.094c0,1.286-.605,1.885-1.9,1.885s-1.925-.6-1.925-1.885V39.608c0-1.286.612-1.885,1.925-1.885s1.9.6,1.9,1.885v1.175h1.564V39.588a3.362,3.362,0,0,0-.872-2.408,3.437,3.437,0,0,0-2.6-.92" transform="translate(1673.533 -53.549)"/>
      <path id="Path_442" data-name="Path 442" class="cls-1" d="M245.536,47.518c0,1.286-.605,1.885-1.9,1.885s-1.925-.6-1.925-1.885V36.8h-1.565V47.538a3.339,3.339,0,0,0,.884,2.409,4.151,4.151,0,0,0,5.211,0,3.338,3.338,0,0,0,.884-2.409V36.8h-1.585Z" transform="translate(1657.948 -53.891)"/>
      <path id="Path_443" data-name="Path 443" class="cls-1" d="M272.711,41.9V40.071a3.261,3.261,0,0,0-.875-2.37,3.484,3.484,0,0,0-2.594-.9h-3.248V50.665h1.565V45.171h1.683c.1,0,.187,0,.26-.006l1.967,5.5h1.714l-2.148-5.851a2.918,2.918,0,0,0,1.676-2.911m-5.152-3.656h1.683c1.3,0,1.9.58,1.9,1.824V41.9c0,1.217-.605,1.784-1.9,1.784h-1.683Z" transform="translate(1641.678 -53.891)"/>
      <path id="Path_444" data-name="Path 444" class="cls-1" d="M290.924,50.664H297V49.221h-4.508V44.4h3.944V42.961h-3.944V38.246H297V36.8h-6.073Z" transform="translate(1625.989 -53.89)"/>
      <path id="Path_445" data-name="Path 445" class="cls-2" d="M324.151,42.642c-.306.926-.572,1.778-.794,2.543l-.761-2.522-1.919-5.86h-1.869V50.664h1.5V42.445c0-.822-.006-1.561-.017-2.211l.717,2.273,1.5,4.534h1.732l2.221-6.89-.026,10.512h1.5V36.8h-1.89Z" transform="translate(1608.442 -53.89)"/>
      <path id="Path_446" data-name="Path 446" class="cls-2" d="M350.665,36.8l-3.216,13.862h1.637l.885-3.864h3.371l.885,3.864h1.636L352.647,36.8Zm2.359,8.534h-2.736l.585-2.543c.324-1.419.584-2.633.775-3.627.143.714.385,1.838.791,3.627Z" transform="translate(1590.417 -53.89)"/>
      <path id="Path_447" data-name="Path 447" class="cls-2" d="M370.188,38.247h2.556V50.665h1.585V38.247h2.536V36.8h-6.677Z" transform="translate(1576.107 -53.89)"/>
      <path id="Path_448" data-name="Path 448" class="cls-2" d="M391.587,50.664h6.073V49.221h-4.508V44.4H397.1V42.961h-3.944V38.246h4.508V36.8h-6.073Z" transform="translate(1562.64 -53.89)"/>
      <path id="Path_449" data-name="Path 449" class="cls-2" d="M411.624,69.273a.878.878,0,0,0-.973.973.974.974,0,0,0,1.947,0,.878.878,0,0,0-.973-.973" transform="translate(1550.643 -74.325)"/>
      <path id="Path_450" data-name="Path 450" class="cls-2" d="M424.133,36.26a3.473,3.473,0,0,0-2.605.919,3.337,3.337,0,0,0-.884,2.409V47.2a3.336,3.336,0,0,0,.884,2.409,4.137,4.137,0,0,0,5.2,0A3.361,3.361,0,0,0,427.6,47.2V46.082h-1.564v1.094c0,1.286-.605,1.885-1.9,1.885s-1.925-.6-1.925-1.885V39.608c0-1.286.612-1.885,1.925-1.885s1.9.6,1.9,1.885v1.175H427.6V39.588a3.361,3.361,0,0,0-.872-2.408,3.437,3.437,0,0,0-2.6-.92" transform="translate(1544.354 -53.549)"/>
      <path id="Path_451" data-name="Path 451" class="cls-2" d="M448.627,36.26a3.473,3.473,0,0,0-2.606.919,3.337,3.337,0,0,0-.884,2.409V47.2a3.337,3.337,0,0,0,.884,2.409,4.137,4.137,0,0,0,5.2,0A3.362,3.362,0,0,0,452.1,47.2V39.588a3.362,3.362,0,0,0-.872-2.408,3.437,3.437,0,0,0-2.6-.92m0,12.8c-1.313,0-1.925-.6-1.925-1.885V39.608c0-1.286.612-1.885,1.925-1.885s1.9.6,1.9,1.885v7.567c0,1.286-.605,1.885-1.9,1.885" transform="translate(1528.94 -53.549)"/>
      <path id="Path_452" data-name="Path 452" class="cls-2" d="M477.961,36.8l-1.9,5.84c-.306.926-.572,1.778-.794,2.543l-.762-2.522-1.919-5.86h-1.869V50.664h1.5V42.445c0-.82-.006-1.558-.017-2.21l.716,2.272,1.5,4.534h1.731l2.221-6.89-.025,10.512h1.5V36.8Z" transform="translate(1512.841 -53.89)"/>
    </g>
  </g>
</svg>
