<svg id="Component_33_3" data-name="Component 33 – 3" xmlns="http://www.w3.org/2000/svg" xmlns:xlink="http://www.w3.org/1999/xlink" width="37.076" height="48.45" viewBox="0 0 37.076 48.45">
  <defs>
    <clipPath id="clip-path">
      <rect id="Rectangle_412" data-name="Rectangle 412" class="cls-1" width="37.076" height="48.45"/>
    </clipPath>
  </defs>
  <g id="Group_394" data-name="Group 394">
    <g id="Group_393" data-name="Group 393">
      <g id="Group_392" data-name="Group 392" class="cls-2">
        <path id="Path_527" data-name="Path 527" class="cls-1" d="M18.536,0A18.593,18.593,0,0,1,36.78,15.457a17.6,17.6,0,0,1-2.99,13.561c-3.751,5.333-7.627,10.578-11.45,15.86-.591.817-1.179,1.636-1.776,2.448a2.35,2.35,0,0,1-4.014-.006q-6.5-8.924-12.99-17.858A18.129,18.129,0,0,1,.014,17.831,18.452,18.452,0,0,1,15.388.356c1.04-.176,2.1-.24,3.149-.356m-.03,32.718A14.166,14.166,0,1,0,4.387,18.439,14.19,14.19,0,0,0,18.506,32.718" transform="translate(0.001)"/>
        <path id="Path_528" data-name="Path 528" class="cls-1" d="M80.928,85.782c1.05-.47,2.008-.9,2.968-1.328,2.359-1.051,4.716-2.106,7.082-3.139a.968.968,0,0,1,.7-.022c3.265,1.449,6.52,2.92,9.777,4.386.045.02.086.05.192.112-.156.083-.273.154-.4.209q-4.746,2.142-9.5,4.271a.967.967,0,0,1-.7.033c-3.271-1.433-6.533-2.889-9.8-4.341-.076-.034-.146-.081-.329-.182" transform="translate(-72.766 -73.045)"/>
        <path id="Path_529" data-name="Path 529" class="cls-1" d="M79.853,145.98l1.839.838,7.367,3.363c.222.1.444.159.443.51-.015,3.157-.009,6.315-.009,9.533-.167-.064-.3-.107-.43-.165-2.929-1.336-5.854-2.68-8.788-4a.619.619,0,0,1-.432-.669c.015-2.94.009-5.879.009-8.819v-.586" transform="translate(-71.791 -131.257)"/>
        <path id="Path_530" data-name="Path 530" class="cls-1" d="M201.571,146.426v5.347c0,1.361.009,2.722-.011,4.082a.662.662,0,0,1-.253.509c-3.058,1.418-6.127,2.812-9.194,4.21a.843.843,0,0,1-.182.029v-.861q0-4.259,0-8.518c0-.263.011-.453.315-.59,3.026-1.365,6.043-2.752,9.063-4.131a2.457,2.457,0,0,1,.265-.077" transform="translate(-172.571 -131.658)"/>
      </g>
    </g>
  </g>
</svg>
