<svg xmlns="http://www.w3.org/2000/svg" xmlns:xlink="http://www.w3.org/1999/xlink" width="61.333" height="63.046" viewBox="0 0 61.333 63.046">
  <defs>
    <clipPath id="clip-path">
      <rect id="Rectangle_431" data-name="Rectangle 431" width="61.333" height="63.046" fill="#f70"/>
    </clipPath>
  </defs>
  <g id="Group_2839" data-name="Group 2839" clip-path="url(#clip-path)">
    <path id="Path_2894" data-name="Path 2894" d="M160.041,0h.747c1.27,0,2.539.015,3.809.045a19.846,19.846,0,0,1,2.715.195,19.551,19.551,0,0,1,2.927.8,17.467,17.467,0,0,1,8.892,7,15.931,15.931,0,0,1,2.461,7.413c.146,1.72.145,3.446.142,5.17.382.315.761.633,1.147.944-.006,2.418.01,4.837-.01,7.255a7.287,7.287,0,0,1-.222,2.046,1.04,1.04,0,0,1-.764.641c-.623.167-1.258.28-1.888.419a18.529,18.529,0,0,1-1.556,2.817,12.5,12.5,0,0,1-4.95,3.915,21.16,21.16,0,0,1-7.607,1.912,12.071,12.071,0,0,1-2.057-.015,1.148,1.148,0,0,1-.736-.324.943.943,0,0,1-.142-.675.66.66,0,0,1,.261-.547,1.785,1.785,0,0,1,.807-.2c.713-.047,1.429-.014,2.143-.063a17.963,17.963,0,0,0,4.882-.964,12.989,12.989,0,0,0,5.784-3.821,10.753,10.753,0,0,0,1.422-2.351c-.368-.327-.733-.659-1.078-1.011.007-1.621,0-3.242.006-4.863.012-1.334.006-2.67.1-4,.142-.549.71-.8,1.175-1.031,0-.6,0-1.2,0-1.8a39.07,39.07,0,0,0-.136-4.4,12.575,12.575,0,0,0-2.9-6.277,15.137,15.137,0,0,0-8.417-4.9,17.019,17.019,0,0,0-2.844-.194c-1.267-.01-2.533,0-3.8,0-1.224.013-2.449-.012-3.67.089a11.038,11.038,0,0,0-2.571.584A15.005,15.005,0,0,0,147.9,7.682a13.059,13.059,0,0,0-3.365,6.607,18.092,18.092,0,0,0-.192,2.89c-.006,1.175,0,2.351,0,3.526.222.122.45.232.666.365a1.019,1.019,0,0,1,.542.866c.085,2.966.008,5.933-.024,8.9a4.464,4.464,0,0,1-4.157.78,2.07,2.07,0,0,1-1.208-.736,3.738,3.738,0,0,1-.167-1.309c-.023-2.734.037-5.467.059-8.2.378-.254.766-.49,1.15-.733.044-1.624.08-3.249.13-4.874a16.153,16.153,0,0,1,.391-3.415,15.214,15.214,0,0,1,1.122-2.765,16.642,16.642,0,0,1,2.329-3.538A17.74,17.74,0,0,1,156.486.089c1.184-.076,2.37-.069,3.555-.089" transform="translate(-130.977)" fill="#f70"/>
    <path id="Path_2895" data-name="Path 2895" d="M28.122,62.624a25.915,25.915,0,0,1,3.632-.041,19.371,19.371,0,0,1,4.184.57,11.653,11.653,0,0,1,5.455,3.091,13,13,0,0,1,3.064,5.985,11.558,11.558,0,0,1,.318,2.437c.073,1.714.029,3.43.087,5.145a4.938,4.938,0,0,0,.328,1.873,7.436,7.436,0,0,1,.586,3.855,8.231,8.231,0,0,1-1.2,3.553,3.674,3.674,0,0,1-1.111,1.214,1.748,1.748,0,0,0-.75.969c-.18.573-.347,1.15-.558,1.712a2.366,2.366,0,0,1-.65,1.027,4.424,4.424,0,0,1-.947.507,18.251,18.251,0,0,1-5.978,1.247A19.975,19.975,0,0,0,32.146,96a1.919,1.919,0,0,0-1.215.671,2.336,2.336,0,0,0-.477,1.994,5.162,5.162,0,0,0,1.289,1.832c.776.023,1.551.054,2.327.063a22.533,22.533,0,0,0,3.343-.219c.262-.01.624-.1.794.164a8.8,8.8,0,0,0,1.023,1.166,11.606,11.606,0,0,0,3.089,2.061c1.846.919,3.759,1.7,5.657,2.5a48.1,48.1,0,0,1,7.165,3.581,16.672,16.672,0,0,1,3.345,2.844,11.17,11.17,0,0,1,2.732,6.017,20.621,20.621,0,0,1,.115,2.9H0c.031-.923.085-1.846.171-2.765a10.949,10.949,0,0,1,.993-3.637A11.259,11.259,0,0,1,3.2,112.306a16.662,16.662,0,0,1,3.076-2.534,43.553,43.553,0,0,1,6.092-3.1c2.586-1.12,5.231-2.125,7.7-3.491a9.168,9.168,0,0,0,2.562-1.942,5.714,5.714,0,0,0,.762-1.345c-.405-.542-.816-1.08-1.22-1.622a23.461,23.461,0,0,1-1.5-2.365,26.394,26.394,0,0,1-1.71-3.619,8.421,8.421,0,0,0-.585-1.523,2.011,2.011,0,0,0-.549-.557,4.562,4.562,0,0,1-1.2-1.442,7.55,7.55,0,0,1-1.009-2.9,8.851,8.851,0,0,1,.276-3.4c.137-.506.436-.95.576-1.454a5.282,5.282,0,0,0,.1-1.384c-.021-1.009-.086-2.017-.067-3.027A19.164,19.164,0,0,1,17.587,70.1a10.846,10.846,0,0,1,3.776-5.06,14.317,14.317,0,0,1,6.759-2.414" transform="translate(0 -58.516)" fill="#f70"/>
  </g>
</svg>
